<svg width="79" height="64" viewBox="0 0 79 64" fill="none" xmlns="http://www.w3.org/2000/svg">
<path d="M59.6756 3.00147C59.6756 3.00147 47.6273 1.07178 39.8573 1.07178C32.0873 1.07178 20.039 3.00147 20.039 3.00147L9.02881 23.2632L6.54304 23.2207C4.03694 23.1778 1.9823 25.1975 1.9823 27.704C1.9823 30.1804 3.98986 32.188 6.46631 32.188H9.02881V57.8218C9.02881 60.5832 11.2674 62.8218 14.0288 62.8218H16.0956C18.4082 62.8218 20.419 61.2359 20.958 58.987L22.3511 53.1734H57.0332L58.668 59.1425C59.263 61.3153 61.2376 62.8218 63.4904 62.8218H65.6858C68.4472 62.8218 70.6858 60.5832 70.6858 57.8218V32.188H73.2483C75.7247 32.188 77.7323 30.1804 77.7323 27.704C77.7323 25.1975 75.6777 23.1778 73.1716 23.2207L70.6858 23.2632L59.6756 3.00147Z" stroke="#C01818" stroke-width="2" stroke-linecap="round" stroke-linejoin="round"/>
<path fill-rule="evenodd" clip-rule="evenodd" d="M26.8174 30.0716C26.8174 22.8699 32.6555 17.0317 39.8572 17.0317C47.059 17.0317 52.8971 22.8699 52.8971 30.0716C52.8971 37.2733 47.059 43.1115 39.8572 43.1115C32.6555 43.1115 26.8174 37.2733 26.8174 30.0716ZM39.8572 19.3096C33.9136 19.3096 29.0953 24.1279 29.0953 30.0716C29.0953 36.0153 33.9136 40.8336 39.8572 40.8336C45.8009 40.8336 50.6192 36.0153 50.6192 30.0716C50.6192 24.1279 45.8009 19.3096 39.8572 19.3096ZM43.4409 26.0004C43.8408 25.5149 44.5586 25.4454 45.0441 25.8453C45.5297 26.2452 45.5991 26.9629 45.1993 27.4485L39.9926 33.7709C39.5967 34.2516 38.8882 34.3252 38.402 33.9362L34.6829 30.961C34.1917 30.568 34.1121 29.8513 34.505 29.3601C34.898 28.8689 35.6147 28.7893 36.1059 29.1822L38.9481 31.456L43.4409 26.0004Z" fill="#C01818"/>
</svg>
