<svg width="38" height="29" viewBox="0 0 38 29" fill="none" xmlns="http://www.w3.org/2000/svg">
<path fill-rule="evenodd" clip-rule="evenodd" d="M0.608948 9.66845C0.862948 10.4444 1.29793 11.1585 1.90793 11.7985C2.54493 12.4705 3.38194 12.9924 4.42194 13.3664C5.45694 13.7394 6.79092 13.9314 8.43692 13.9314H10.6699C10.4019 16.6744 9.42295 19.0115 7.73395 20.9435C6.04495 22.8715 3.70094 24.5645 0.70694 26.0185L2.52094 28.8335C6.46593 27.1544 9.83794 24.6994 12.6379 21.4534C15.4409 18.2074 16.8339 14.9895 16.8339 11.7985C16.8339 8.37045 16.0269 5.68245 14.3959 3.74045C12.7649 1.79945 10.4309 0.835449 7.38992 0.835449C5.46592 0.835449 3.78894 1.47545 2.36694 2.76045C0.942943 4.04545 0.231934 5.54845 0.231934 7.26345C0.231934 8.08745 0.358948 8.89245 0.608948 9.66845ZM21.0069 9.66845C21.2589 10.4444 21.6969 11.1585 22.3039 11.7985C22.9429 12.4705 23.7809 12.9924 24.8159 13.3664C25.8549 13.7394 27.1889 13.9314 28.8339 13.9314H31.0639C30.7979 16.6744 29.8199 19.0115 28.1299 20.9435C26.4389 22.8715 24.0989 24.5645 21.1029 26.0185L22.9199 28.8335C26.8629 27.1544 30.2359 24.6994 33.0369 21.4534C35.8379 18.2074 37.2319 14.9895 37.2319 11.7985C37.2319 8.37045 36.4229 5.68245 34.7929 3.74045C33.1639 1.79945 30.8299 0.835449 27.7889 0.835449C25.8609 0.835449 24.1869 1.47545 22.7649 2.76045C21.3409 4.04545 20.6299 5.54845 20.6299 7.26345C20.6299 8.08745 20.7539 8.89245 21.0069 9.66845Z" fill="#C01818"/>
</svg>
