<svg width="61" height="61" viewBox="0 0 61 61" fill="none" xmlns="http://www.w3.org/2000/svg">
<g clip-path="url(#clip0)">
<path d="M60.7048 26.6393V2.52036C60.7048 1.29506 59.7139 0.301758 58.4916 0.301758L34.4307 0.301758C33.2083 0.301758 32.2174 1.29506 32.2174 2.52036V26.6393C32.2174 27.8646 33.2083 28.8579 34.4307 28.8579H58.4916C59.7139 28.8579 60.7048 27.8646 60.7048 26.6393Z" fill="#C01818"/>
<path d="M46.7792 12.2927H46.6934V12.684H46.7792" fill="white"/>
<path d="M42.179 16.687L46.7012 16.6753C45.1612 16.6674 43.6448 16.6753 42.179 16.687Z" fill="white"/>
<path d="M41.6774 17.0898H42.2044H41.5486C41.5935 17.0898 41.6325 17.0918 41.6774 17.0898Z" fill="white"/>
<path d="M46.8632 16.6675H46.6934V17.0588H46.7792" fill="white"/>
<path d="M42.2043 17.0861L46.6933 17.0743C45.1729 17.0685 43.6681 17.0743 42.2043 17.0861Z" fill="white"/>
<path d="M46.5918 12.2927H46.668V12.684H46.584" fill="white"/>
<path d="M51.1999 16.687L46.668 16.6753C48.2098 16.6674 49.7263 16.6753 51.1999 16.687Z" fill="white"/>
<path d="M51.6937 17.0898H51.1647H51.8225C51.7815 17.0898 51.7425 17.0918 51.6937 17.0898Z" fill="white"/>
<path d="M46.506 16.6675H46.668V17.0588H46.5841" fill="white"/>
<path d="M53.5791 21.7776C53.57 21.2376 53.5589 20.6996 53.5459 20.1635C53.5342 19.7109 53.5244 19.259 53.5166 18.8077C53.5166 18.5573 53.5166 18.1816 53.1926 18.1816C52.8374 18.1816 52.4803 18.1816 52.1231 18.1816C51.7659 18.1816 51.4068 18.1816 51.0516 18.1816C50.7452 18.1816 50.7374 18.5592 50.7335 18.8077C50.7335 19.2616 50.7159 19.7174 50.7042 20.1772L46.6914 20.1987L42.6767 20.1772L42.6474 18.8077C42.6474 18.5592 42.6357 18.1816 42.3293 18.1816C41.9721 18.1816 41.615 18.1816 41.2578 18.1816C40.9006 18.1816 40.5435 18.1816 40.1863 18.1816C39.8682 18.1816 39.8682 18.5573 39.8623 18.8077C39.8545 19.2603 39.8454 19.7122 39.835 20.1635C39.8233 20.6996 39.8122 21.2376 39.8018 21.7776C39.7921 22.2862 39.835 22.521 39.9599 22.6443C39.9891 22.673 40.024 22.6953 40.0623 22.7098C40.1006 22.7243 40.1415 22.7306 40.1824 22.7284C40.5318 22.7147 40.8928 22.7069 41.2578 22.7069C41.6228 22.7069 41.9838 22.7069 42.3332 22.7284H42.3449C42.4234 22.7288 42.499 22.6987 42.5557 22.6443C42.6806 22.521 42.7236 22.2862 42.7138 21.7776C42.7138 21.3745 42.6982 20.9735 42.6884 20.5705L46.6856 20.592H46.7031L50.7003 20.5705C50.7003 20.9735 50.6827 21.3745 50.6749 21.7776C50.6749 22.2862 50.71 22.521 50.8349 22.6443C50.8909 22.6985 50.9659 22.7287 51.0438 22.7284H51.0574C51.4048 22.7147 51.7659 22.7049 52.1309 22.7069C52.4959 22.7088 52.8589 22.7069 53.2063 22.7284C53.2472 22.7308 53.2881 22.7245 53.3265 22.71C53.3648 22.6955 53.3996 22.6731 53.4288 22.6443C53.544 22.521 53.5869 22.2862 53.5791 21.7776ZM42.2747 22.3273C41.9468 22.3156 41.6091 22.3078 41.2676 22.3078H41.248C40.9026 22.3078 40.5552 22.3078 40.2214 22.3273C40.1881 22.1481 40.1776 21.9653 40.1902 21.7834C40.2 21.2454 40.2117 20.7094 40.2234 20.1713C40.2338 19.7187 40.2429 19.2668 40.2507 18.8155C40.2507 18.6981 40.2507 18.6199 40.2663 18.5827H42.2298C42.2387 18.66 42.2432 18.7377 42.2434 18.8155L42.2727 20.185C42.2844 20.7191 42.2961 21.2552 42.3059 21.7893C42.3168 21.9693 42.3063 22.1499 42.2747 22.3273ZM53.1497 22.3273C52.814 22.3136 52.4666 22.3097 52.1211 22.3078H52.1036C51.762 22.3078 51.4224 22.3078 51.0945 22.3273C51.0624 22.148 51.0519 21.9653 51.0633 21.7834C51.0731 21.2493 51.0848 20.7133 51.0965 20.1792C51.1062 19.7253 51.1179 19.2714 51.1258 18.8097C51.1259 18.7319 51.1305 18.6541 51.1394 18.5768H53.1087C53.1176 18.6541 53.1222 18.7319 53.1224 18.8097C53.1302 19.2622 53.1399 19.7142 53.1516 20.1655C53.1634 20.7035 53.1751 21.2396 53.1848 21.7776C53.1954 21.9616 53.1836 22.1462 53.1497 22.3273Z" fill="white"/>
<path d="M51.4419 10.9643V10.7687H47.9073L47.5169 5.78369H45.8658L45.4754 10.7687H45.1066L45.0578 9.23876L42.4405 8.9629V10.7687H41.9272V10.9643L41.8608 11.7958L42.2512 11.8271L42.3019 11.1717H51.0593L51.112 11.8271L51.5024 11.7958L51.4419 10.9643ZM42.8387 10.7687V9.39919L44.6713 9.59483L44.7084 10.7687H42.8387ZM46.6933 10.7687H45.8619L46.2249 6.20628H47.1442L47.5072 10.7687H46.6933Z" fill="white"/>
<path d="M51.1569 17.0861L46.668 17.0743C48.1981 17.0685 49.7029 17.0743 51.1569 17.0861Z" fill="white"/>
<path d="M52.6325 15.1706C52.6071 14.9007 52.5817 14.6307 52.5544 14.3666C52.5095 13.895 52.4607 13.4079 52.4217 12.9305C52.3729 12.3651 51.9864 12.2908 51.6527 12.2908C49.9976 12.2908 48.3432 12.2908 46.6895 12.2908C45.0357 12.2908 43.3813 12.2908 41.7262 12.2908C41.3925 12.2908 41.006 12.3651 40.9592 12.9305C40.9182 13.4079 40.8714 13.895 40.8245 14.3666C40.7991 14.6307 40.7718 14.9007 40.7464 15.1706L40.5513 17.0351V17.0899H42.218C43.6779 17.0782 45.1808 17.0723 46.707 17.0723C48.2333 17.0723 49.7263 17.0723 51.196 17.0899H52.8628V17.0293L52.6325 15.1706ZM51.8108 16.6888H51.6976H51.1999L46.6934 16.6771H46.668L42.179 16.6869H41.6813H41.5681C41.4176 16.6979 41.2687 16.6502 41.1524 16.5538C41.1088 16.4895 41.0784 16.4171 41.063 16.3408C41.0476 16.2646 41.0475 16.186 41.0626 16.1097C41.1075 15.5404 41.1641 14.9613 41.2188 14.4037C41.2656 13.9303 41.3144 13.4431 41.3534 12.9618C41.371 12.7466 41.4198 12.6879 41.7243 12.6879C43.378 12.6879 45.0298 12.6879 46.6797 12.6879H46.6973C48.3484 12.6879 50.0002 12.6879 51.6527 12.6879C51.9552 12.6879 52.004 12.7466 52.0216 12.9618C52.0626 13.4431 52.1114 13.94 52.1562 14.4037C52.2109 14.9613 52.2675 15.5404 52.3124 16.1097C52.3284 16.186 52.3287 16.2647 52.3133 16.3411C52.2979 16.4175 52.267 16.4899 52.2226 16.5538C52.1076 16.65 51.9602 16.6983 51.8108 16.6888Z" fill="white"/>
<path d="M50.3763 17.5908H49.986V18.1778H43.395V17.5908H43.0046L42.9753 18.5945L43.274 19.019C43.4457 19.2147 43.6233 19.3986 43.8595 19.4103C44.8002 19.4299 45.739 19.4403 46.6758 19.4416H46.6934C47.6302 19.4416 48.571 19.4299 49.5097 19.4103C49.742 19.4103 49.9196 19.2147 50.0953 19.019L50.3919 18.5945L50.3763 17.5908ZM49.7908 18.7451C49.703 18.839 49.5546 18.9995 49.4922 19.0014C48.5514 19.021 47.6107 19.0327 46.6758 19.0347C45.7409 19.0366 44.7983 19.021 43.8595 19.0014C43.7951 19.0014 43.6487 18.839 43.5589 18.7451C43.5199 18.7021 43.4808 18.659 43.4399 18.6199L43.4496 18.5906H49.9001V18.6199C49.8786 18.659 49.8396 18.7021 49.8005 18.7451H49.7908Z" fill="white"/>
<path fill-rule="evenodd" clip-rule="evenodd" d="M60.412 33.3775C60.412 32.3143 59.5522 31.4524 58.4915 31.4524H34.4306C33.37 31.4524 32.5101 32.3143 32.5101 33.3775V57.4965C32.5101 58.5597 33.37 59.4216 34.4306 59.4216H58.4915C59.5522 59.4216 60.412 58.5597 60.412 57.4965V33.3775ZM58.4915 30.8655C59.8756 30.8655 60.9976 31.9902 60.9976 33.3775V57.4965C60.9976 58.8839 59.8756 60.0086 58.4915 60.0086H34.4306C33.0466 60.0086 31.9246 58.8839 31.9246 57.4965V33.3775C31.9246 31.9902 33.0466 30.8655 34.4306 30.8655H58.4915Z" fill="#FAFAFA"/>
<path d="M39.349 39.8318L36.9093 40.3112V44.2808H39.349V39.8318ZM38.9586 43.8895H37.3192V40.6457L38.9586 40.319V43.8895Z" fill="#FAFAFA"/>
<path d="M42.5791 48.5282H39.5578V51.007H43.4925L42.5791 48.5282ZM39.956 48.9195H42.298L42.9187 50.6001H39.9521L39.956 48.9195Z" fill="#FAFAFA"/>
<path d="M43.0065 54.0629C43.018 54.3059 43.0023 54.5493 42.9597 54.7888C42.5498 54.7731 42.1263 54.7673 41.6969 54.7653C41.2675 54.7633 40.844 54.7653 40.4341 54.7888C40.393 54.5498 40.3786 54.307 40.3912 54.0649C40.3912 53.8693 40.3912 53.6638 40.4049 53.4623H40.0145C40.0145 53.658 40.0145 53.8536 40.0009 54.0492C40.0009 54.5677 40.0379 54.9551 40.1726 55.0862C40.2027 55.1165 40.2387 55.1405 40.2782 55.1566C40.3178 55.1727 40.3602 55.1807 40.4029 55.1801H40.4146C40.8323 55.1644 41.2675 55.1566 41.7047 55.1566C42.1419 55.1566 42.5771 55.1566 42.9948 55.1801C43.0397 55.1823 43.0846 55.175 43.1267 55.1589C43.1687 55.1427 43.2068 55.1179 43.2388 55.0862C43.3715 54.9551 43.4203 54.5677 43.4086 54.0492L43.3969 53.4623H43.0065V54.0629Z" fill="#FAFAFA"/>
<path d="M42.9948 53.4525H43.3852V53.4349L42.9948 53.4525Z" fill="#FAFAFA"/>
<path d="M40.4088 53.4525L40.0184 53.4428V53.4604H40.4088V53.4525Z" fill="#FAFAFA"/>
<path d="M39.8916 38.2236V44.0714C39.8897 44.4448 40.0173 44.8072 40.2526 45.0966V45.2022H40.3463C40.4681 45.3258 40.613 45.424 40.7728 45.4911C40.9326 45.5583 41.104 45.5931 41.2773 45.5935H51.4614C51.6344 45.593 51.8055 45.5582 51.965 45.491C52.1244 45.4239 52.269 45.3257 52.3904 45.2022H52.4861V45.0966C52.7213 44.8072 52.849 44.4448 52.8471 44.0714V38.2236H39.8916ZM52.4861 44.0714C52.4983 44.3572 52.3975 44.6363 52.2057 44.848C52.0138 45.0597 51.7464 45.187 51.4614 45.2022H41.2773C40.9922 45.1875 40.7244 45.0604 40.5324 44.8485C40.3405 44.6367 40.2399 44.3573 40.2526 44.0714V38.7264C40.2819 38.6912 40.3131 38.656 40.3463 38.6227H52.3904C52.4236 38.656 52.4548 38.6912 52.4861 38.7264V44.0714Z" fill="#FAFAFA"/>
<path d="M52.9213 37.3648L51.8439 36.4218H40.8928L39.8174 37.3648H38.863V39.4542H39.2612V37.7658H39.9657L41.0431 36.8209H51.6956L52.771 37.7658H53.4775V39.4542H53.8757V37.3648H52.9213Z" fill="#FAFAFA"/>
<path d="M53.3897 44.2886H55.8255V40.3112L53.3897 39.824V44.2886ZM53.7801 40.319L55.4195 40.6457V43.8895H53.7801V40.319Z" fill="#FAFAFA"/>
<path d="M49.2442 51.0089H53.1809V48.5282H50.1596L49.2442 51.0089ZM52.7827 50.6177H49.8161L50.4367 48.9371H52.7788L52.7827 50.6177Z" fill="#FAFAFA"/>
<path d="M53.8562 44.6447L53.4619 44.7014L53.5205 45.1103L52.771 45.6522V47.7202H49.6053L48.4655 50.6098H44.2732L43.1334 47.7202H39.9677V45.6522L39.2182 45.1103L39.2768 44.7014L38.8825 44.6447L38.7888 45.2923L39.5695 45.8557V48.1193H42.8621L44.0019 51.009H48.7348L49.8766 48.1193H53.1692V45.8557L53.9499 45.2923L53.8562 44.6447Z" fill="#FAFAFA"/>
<path d="M49.7302 54.0629C49.7187 54.3051 49.7331 54.5478 49.7732 54.7868C50.183 54.7712 50.6065 54.7653 51.0359 54.7633C51.4653 54.7614 51.8908 54.7633 52.3006 54.7868C52.3418 54.5479 52.3562 54.3051 52.3436 54.0629C52.3436 53.8673 52.3338 53.6619 52.3299 53.4604H52.7203C52.7203 53.656 52.73 53.8516 52.7339 54.0473C52.7437 54.5657 52.6949 54.9531 52.5622 55.0842C52.532 55.1146 52.4961 55.1385 52.4566 55.1546C52.417 55.1708 52.3746 55.1788 52.3319 55.1781H52.328C51.9103 55.1625 51.477 55.1546 51.0379 55.1546C50.5987 55.1546 50.1674 55.1546 49.7497 55.1781C49.7048 55.1803 49.6599 55.1731 49.6179 55.1569C49.5759 55.1407 49.5377 55.116 49.5058 55.0842C49.3731 54.9531 49.3243 54.5657 49.334 54.0473C49.334 53.8516 49.334 53.656 49.3477 53.4604H49.738C49.74 53.6619 49.7341 53.8614 49.7302 54.0629Z" fill="#FAFAFA"/>
<path d="M52.7827 51.3768V53.0613H39.956V51.3768H39.5656V53.4604L40.0184 53.4604V53.4428L40.4088 53.4525L42.9948 53.4525L43.3851 53.4428V53.4604H49.3379V53.4428L49.7283 53.4526H52.328L52.7183 53.4428V53.4604H53.1711V51.3768H52.7827Z" fill="#FAFAFA"/>
<path d="M49.7439 53.4525H49.3535V53.4349L49.7439 53.4525Z" fill="#FAFAFA"/>
<path d="M52.328 53.4526L52.7183 53.4428V53.4604L52.328 53.4604L52.328 53.4526Z" fill="#FAFAFA"/>
<path fill-rule="evenodd" clip-rule="evenodd" d="M29.485 2.52037C29.485 1.45714 28.6251 0.595232 27.5645 0.595232H3.50358C2.44292 0.595232 1.58308 1.45714 1.58308 2.52037V26.6393C1.58308 27.7025 2.44292 28.5645 3.50358 28.5645H27.5645C28.6251 28.5645 29.485 27.7025 29.485 26.6393V2.52037ZM27.5645 0.00830078C28.9485 0.00830078 30.0705 1.13299 30.0705 2.52037V26.6393C30.0705 28.0267 28.9485 29.1514 27.5645 29.1514H3.50358C2.11954 29.1514 0.997559 28.0267 0.997559 26.6393V2.52037C0.997559 1.13299 2.11954 0.00830078 3.50358 0.00830078H27.5645Z" fill="#FAFAFA"/>
<path d="M11.613 17.5224L15.4247 18.614V18.1993L12.0112 17.2211V15.2138H15.4247V14.8146H11.613V17.5224Z" fill="#FAFAFA"/>
<path d="M11.0509 14.7951L6.82932 13.3277V15.9298L11.0509 17.3463V14.7951ZM10.6606 16.7926L7.22747 15.6422V13.899L10.6528 15.0729L10.6606 16.7926Z" fill="#FAFAFA"/>
<path d="M15.4286 21.1457H15.4247V21.1672L15.4286 21.1457Z" fill="#FAFAFA"/>
<path d="M7.22747 19.3771V18.1034H6.83713V19.6999L7.65881 19.8779C7.65881 20.189 7.65881 20.8366 7.64905 21.0048C7.64905 21.5252 7.68613 21.9107 7.8208 22.0437C7.85083 22.0736 7.88646 22.0973 7.92564 22.1134C7.96483 22.1296 8.0068 22.1378 8.04915 22.1376H8.06281C8.48048 22.122 8.91572 22.1141 9.35291 22.1141C9.79009 22.1141 10.2253 22.1141 10.643 22.1376C10.6876 22.1395 10.7321 22.1322 10.7738 22.116C10.8154 22.0998 10.8533 22.0752 10.885 22.0437C11.0197 21.9107 11.0665 21.5252 11.0568 21.0048C11.0568 20.8737 11.0568 20.7407 11.0568 20.6135L15.4403 21.5918V21.1379L7.22747 19.3771ZM10.6079 21.7365C10.198 21.7228 9.77448 21.717 9.3451 21.715C8.91572 21.7131 8.49219 21.715 8.08233 21.7365C8.04099 21.4976 8.02659 21.2548 8.03939 21.0127C8.03939 20.8561 8.03939 20.2966 8.04915 19.962L10.641 20.5216C10.641 20.6859 10.641 20.8503 10.6508 21.0127C10.6636 21.2548 10.6492 21.4976 10.6079 21.7365Z" fill="#FAFAFA"/>
<path d="M19.8356 17.3463L24.0553 15.9298V13.3277L19.8356 14.7951V17.3463ZM20.226 15.0787L23.6571 13.899V15.6598L20.2338 16.7926L20.226 15.0787Z" fill="#FAFAFA"/>
<path d="M15.4579 21.1457H15.4618V21.1672L15.4579 21.1457Z" fill="#FAFAFA"/>
<path d="M19.2735 14.8146H11.6618V17.5224L15.454 18.6082H15.4735L19.2657 17.5224L19.2735 14.8146ZM18.8754 17.225L15.4716 18.2032L12.0678 17.225V15.2138H18.8754V17.225Z" fill="#FAFAFA"/>
<path d="M9.67884 11.3967V11.4456C9.67788 11.43 9.67788 11.4143 9.67884 11.3987V11.3967Z" fill="#FAFAFA"/>
<path d="M22.0469 9.88044V11.2499H21.6566L21.5883 10.573C21.5629 10.303 21.5375 10.033 21.5122 9.76697C21.4653 9.29742 21.4165 8.81027 21.3775 8.33094C21.3307 7.76749 20.9442 7.69314 20.6105 7.69314C18.9554 7.69314 17.301 7.69314 15.6472 7.69314H15.3018C13.648 7.69314 11.9936 7.69314 10.3385 7.69314C10.0048 7.69314 9.61834 7.76749 9.5715 8.33094C9.53051 8.81027 9.48172 9.29742 9.43683 9.76697C9.4095 10.033 9.38413 10.303 9.35876 10.573L9.28849 11.248H8.89815V9.87848H6.88787V10.8567L7.81884 11.6393H9.22604L9.69836 11.8349L11.8316 12.6801H19.1135L21.2467 11.8349L21.7171 11.6393H23.1243L24.0553 10.8567V9.87848L22.0469 9.88044ZM8.49804 11.2499H7.96522L7.28602 10.6708V10.2796H8.49804V11.2499ZM21.1374 11.4456L19.5253 12.0853L19.0374 12.281H11.9077L11.4198 12.0853L9.8057 11.4456L9.68274 11.3986C9.72568 10.8665 9.77838 10.3265 9.82912 9.80414C9.87596 9.33264 9.92281 8.84548 9.96379 8.3642C9.98136 8.14899 10.0302 8.0903 10.3327 8.0903C11.9838 8.0903 13.6356 8.0903 15.2881 8.0903H15.6453C17.2964 8.0903 18.9476 8.0903 20.5988 8.0903C20.9032 8.0903 20.9501 8.14899 20.9696 8.3642C21.0086 8.84548 21.0574 9.33264 21.1023 9.80414C21.155 10.3265 21.2057 10.8665 21.2487 11.3986L21.1374 11.4456ZM23.6571 10.663L22.9779 11.2382H22.4451V10.2796H23.6571V10.663Z" fill="#FAFAFA"/>
<path d="M15.4852 21.1457H15.4813V21.1672L15.4852 21.1457Z" fill="#FAFAFA"/>
<path d="M24.0553 18.1034H23.6649V19.3771L15.4794 21.1379L7.28602 19.3771V18.1034H6.89568V19.6999L7.71736 19.8779C7.71736 20.189 7.71736 20.8366 7.70565 21.0048C7.70565 21.5252 7.74468 21.9107 7.8774 22.0437C7.93877 22.1043 8.02157 22.138 8.1077 22.1376H8.12136C8.53903 22.122 8.97232 22.1141 9.41146 22.1141C9.85059 22.1141 10.2819 22.1141 10.6996 22.1376C10.7445 22.1394 10.7893 22.1321 10.8313 22.1159C10.8732 22.0998 10.9114 22.0752 10.9436 22.0437C11.0763 21.9107 11.1251 21.5252 11.1153 21.0048C11.1153 20.8737 11.1153 20.7407 11.1153 20.6135L15.4794 21.5918H15.4989L19.863 20.6135C19.863 20.7466 19.863 20.8796 19.863 21.0048C19.8512 21.5252 19.9 21.9107 20.0328 22.0437C20.0649 22.0752 20.1031 22.0998 20.1451 22.1159C20.187 22.1321 20.2318 22.1394 20.2767 22.1376C20.6944 22.122 21.1316 22.1122 21.5668 22.1141C22.002 22.1161 22.4392 22.1141 22.8569 22.1376H22.8706C22.956 22.1375 23.038 22.1038 23.0989 22.0437C23.2336 21.9107 23.2804 21.5252 23.2707 21.0048C23.2707 20.8366 23.2707 20.189 23.259 19.8779L24.0806 19.6999L24.0553 18.1034ZM10.6664 21.7365C10.2566 21.7228 9.83303 21.717 9.40365 21.715C8.97427 21.7131 8.54879 21.715 8.13893 21.7365C8.09759 21.4976 8.08319 21.2548 8.09599 21.0127C8.09599 20.8561 8.09599 20.2966 8.10575 19.962L10.6976 20.5216L10.7094 21.0127C10.721 21.2548 10.7067 21.4975 10.6664 21.7365ZM22.8042 21.7365C22.3943 21.7228 21.9708 21.7131 21.5414 21.715C21.1121 21.717 20.6885 21.715 20.2787 21.7365C20.2373 21.4976 20.2229 21.2548 20.2357 21.0127C20.2357 20.8503 20.2357 20.6859 20.2455 20.5216L22.8374 19.964C22.8374 20.2986 22.8374 20.8581 22.8374 21.0146C22.8533 21.2557 22.8421 21.4979 22.8042 21.7365Z" fill="#FAFAFA"/>
<path d="M29.7777 57.4962V33.3773C29.7777 32.152 28.7868 31.1587 27.5645 31.1587H3.50356C2.28121 31.1587 1.2903 32.152 1.2903 33.3773V57.4962C1.2903 58.7215 2.28121 59.7148 3.50356 59.7148H27.5645C28.7868 59.7148 29.7777 58.7215 29.7777 57.4962Z" fill="#C01818"/>
<path d="M12.1087 53.6145C12.1087 53.7358 12.1087 53.8591 12.1087 53.9823C12.1087 54.1056 12.1087 54.2836 12.1087 54.4342C12.1087 54.4577 12.1087 54.4792 12.1087 54.4949C12.0326 54.4949 11.9545 54.4949 11.8784 54.4949V53.6145H11.9038H12.1087Z" fill="white"/>
<path d="M12.2746 53.3193H11.9779H11.8686H11.57C11.536 53.318 11.5022 53.3244 11.4711 53.3382C11.4399 53.3519 11.4123 53.3726 11.3903 53.3986C11.3684 53.4246 11.3525 53.4553 11.3441 53.4883C11.3357 53.5213 11.3348 53.5558 11.3417 53.5892C11.3417 53.7184 11.3417 53.8475 11.3417 53.9805C11.3417 54.1136 11.3417 54.2818 11.3417 54.4325C11.3417 54.5831 11.3631 54.6849 11.451 54.7435C11.4968 54.7736 11.5504 54.7892 11.6051 54.7885H11.6227L11.9194 54.7788L12.2141 54.7885H12.2317C12.2869 54.7889 12.3412 54.7733 12.3878 54.7435C12.4756 54.6849 12.4932 54.589 12.4951 54.4325C12.4971 54.276 12.4951 54.1312 12.4951 53.9805V53.5892C12.5127 53.5169 12.5127 53.3232 12.2746 53.3193ZM12.1048 53.9766C12.1048 54.1273 12.1048 54.2779 12.1048 54.4286C12.1048 54.452 12.1048 54.4736 12.1048 54.4892H11.9838H11.8686H11.7457C11.7457 54.4736 11.7457 54.452 11.7457 54.4286C11.7457 54.2779 11.7457 54.1273 11.7457 53.9766C11.7457 53.826 11.7457 53.7301 11.7457 53.6088H11.9408H12.136C12.1087 53.7301 12.1067 53.8534 12.1048 53.9766Z" fill="white"/>
<path d="M13.3852 53.6145C13.3852 53.7378 13.3852 53.8591 13.3852 53.9823V54.4342C13.3863 54.4544 13.3863 54.4747 13.3852 54.4949H13.1548V53.6165H13.1822L13.3852 53.6145Z" fill="white"/>
<path d="M19.3984 53.6145C19.3984 53.7358 19.3984 53.8591 19.3984 53.9823V54.4342C19.3973 54.4544 19.3973 54.4747 19.3984 54.4949C19.4745 54.4949 19.5526 54.4949 19.6287 54.4949V53.6145H19.6014H19.3984Z" fill="white"/>
<path d="M19.0002 53.5893C19.0002 53.7184 19.0002 53.8476 19.0002 53.9806V54.4325C19.0002 54.5891 19.0198 54.6849 19.1076 54.7436C19.154 54.7739 19.2084 54.7896 19.2637 54.7886H19.2813L19.576 54.7788L19.8707 54.7886H19.8883C19.9436 54.7896 19.998 54.7739 20.0444 54.7436C20.1322 54.6849 20.1498 54.5891 20.1537 54.4325C20.1576 54.276 20.1537 54.1312 20.1537 53.9806C20.1537 53.8299 20.1537 53.7204 20.1537 53.5893C20.1607 53.5554 20.1598 53.5203 20.151 53.4868C20.1423 53.4533 20.1259 53.4223 20.1033 53.3962C20.0806 53.3701 20.0522 53.3496 20.0204 53.3362C19.9885 53.3229 19.954 53.3171 19.9195 53.3193H19.6228H19.5389H19.2423C18.9983 53.3232 19.0002 53.5169 19.0002 53.5893ZM19.3906 53.6089H19.5858H19.7809C19.7809 53.7302 19.7809 53.8534 19.7809 53.9767C19.7809 54.0999 19.7809 54.278 19.7809 54.4286C19.7809 54.4521 19.7809 54.4736 19.7809 54.4893H19.6599H19.5389H19.4179C19.4168 54.4691 19.4168 54.4488 19.4179 54.4286V53.9767C19.4023 53.8534 19.4003 53.7302 19.3984 53.6147L19.3906 53.6089Z" fill="white"/>
<path d="M18.1239 53.6145C18.1239 53.7378 18.1239 53.8591 18.1239 53.9823V54.4342C18.1228 54.4544 18.1228 54.4747 18.1239 54.4949H18.3542V53.6165H18.3269L18.1239 53.6145Z" fill="white"/>
<path d="M17.7258 53.5854C17.7258 53.7165 17.7258 53.8456 17.7258 53.9767V54.4306C17.7258 54.5851 17.7453 54.681 17.8331 54.7397C17.8795 54.77 17.9339 54.7857 17.9893 54.7847H18.0068C18.1025 54.7847 18.202 54.7847 18.3015 54.773C18.4011 54.7612 18.4967 54.773 18.5962 54.7847H18.6138C18.6692 54.7857 18.7236 54.77 18.7699 54.7397C18.8578 54.681 18.8753 54.5851 18.8773 54.4306V53.9767C18.8773 53.8476 18.8773 53.7184 18.8773 53.5854C18.8773 53.513 18.8773 53.3193 18.6431 53.3174H18.3464H18.2371H17.9405C17.7219 53.3193 17.7258 53.513 17.7258 53.5854ZM18.1161 53.605H18.3113H18.5065C18.5065 53.7282 18.5065 53.8495 18.5065 53.9728V54.4247C18.5076 54.4449 18.5076 54.4652 18.5065 54.4854H18.3679H18.2586H18.1376C18.1364 54.4652 18.1364 54.4449 18.1376 54.4247V53.9728C18.1278 53.8495 18.1259 53.7282 18.1239 53.6148L18.1161 53.605Z" fill="white"/>
<path d="M23.9615 54.358V51.0908H23.5712H20.4367V50.4628H17.5735V50.721H17.1832V49.9561H16.7928V50.721H14.7318V49.9561H14.3414V50.721H13.9511V50.4628H11.0801V51.0908H7.94564H7.55529V54.358H7.20789V54.7493H8.21888V54.358H7.94564V52.2588H11.0801V53.6987H12.6122C12.6122 53.7926 12.6122 53.8944 12.6122 53.9804C12.6122 54.1311 12.6122 54.2817 12.6122 54.4343C12.6122 54.5869 12.6337 54.6848 12.7215 54.7434C12.7679 54.7737 12.8223 54.7894 12.8777 54.7884H12.903C12.9987 54.7884 13.0982 54.7884 13.1977 54.7767C13.2973 54.765 13.3929 54.7767 13.4924 54.7884H13.51C13.5654 54.7894 13.6198 54.7737 13.6662 54.7434C13.754 54.6848 13.7715 54.5889 13.7735 54.4343V53.9804C13.7735 53.8865 13.7735 53.7848 13.7735 53.6987H13.9277V53.1666H17.5735V53.6987H20.4289V52.2451H23.5634V54.358H23.2823V54.7493H24.3011V54.358H23.9615ZM11.0801 51.8538H7.94564V51.4879H11.0801V51.8538ZM13.3812 53.9726V54.4246C13.3823 54.4448 13.3823 54.465 13.3812 54.4852H13.2602H13.1509H13.0299C13.0299 54.4696 13.0299 54.45 13.0299 54.4246C13.0299 54.2739 13.0299 54.1233 13.0299 53.9726C13.0299 53.8787 13.0299 53.7868 13.0299 53.6928H13.4007C13.3832 53.7868 13.3812 53.8787 13.3812 53.9726ZM13.5373 53.2937H11.4783V50.8599H13.5373V53.2937ZM17.5735 52.7616H13.9355V51.1182H17.5735V52.7616ZM20.0307 53.2937H17.9775V50.8599H20.0307V53.2937ZM20.4211 51.8538V51.4879H23.5556V51.8538H20.4211Z" fill="white"/>
<path d="M21.2799 47.2249V45.6597H20.8896L18.3992 45.6714C17.7922 44.4976 17.6985 44.4976 17.5833 44.4976H16.8651L9.38998 37.7225L9.40169 37.7088C9.48171 37.6109 9.67493 37.382 9.47976 37.2157C9.33923 37.0964 9.20066 36.9751 9.06209 36.8538L8.64637 36.4919C8.4512 36.3216 8.25602 36.5447 8.17015 36.6405L7.68807 37.1805L7.11426 37.8164C6.90738 38.0472 6.84102 38.1685 6.85273 38.2918C6.85492 38.3247 6.86425 38.3567 6.88006 38.3857L7.35433 41.6412L7.26845 42.2281C7.13769 42.3886 6.87811 42.7544 7.03815 43.0263C7.08919 43.1024 7.15998 43.163 7.24288 43.2016C7.32578 43.2402 7.41763 43.2554 7.50851 43.2455C7.63318 43.2426 7.75731 43.2282 7.87934 43.2024L7.80322 42.8111C7.66767 42.8517 7.52429 42.8584 7.38555 42.8307C7.42995 42.6905 7.50534 42.5621 7.6061 42.4551L7.64513 42.4101L7.75053 41.6803H7.76224V41.6431L8.11745 39.2054C8.17038 39.1695 8.21943 39.1282 8.26383 39.0822L9.79789 40.4262C9.70616 40.526 9.61443 40.6219 9.52465 40.7295C9.39974 40.8704 9.32947 40.9662 9.34314 41.0817C9.34563 41.1129 9.35454 41.1433 9.36932 41.1709C9.3841 41.1985 9.40443 41.2227 9.42901 41.2421C9.51684 41.3125 9.60272 41.3829 9.68664 41.4573C9.77057 41.5316 9.85449 41.606 9.93646 41.6823C9.97833 41.7228 10.0344 41.7453 10.0926 41.7449H10.1063C10.2214 41.7449 10.3014 41.6588 10.4283 41.516C10.4712 41.4612 10.5161 41.4084 10.561 41.3556L12.501 46.7416L12.0853 49.2987H12.3254C12.8172 49.2869 13.8633 49.2772 14.644 49.2752H15.7097C16.2679 49.2752 17.0759 49.2752 17.595 49.2987H20.2494L19.1857 47.2444L21.2799 47.2249ZM7.55535 40.2619L7.34066 38.7965L7.36799 38.8181C7.489 38.9237 7.6061 39.0293 7.7193 39.137L7.55535 40.2619ZM8.08818 38.6713C8.03158 38.7398 7.98864 38.7848 7.95936 38.8141C7.85202 38.7144 7.74272 38.6185 7.62952 38.5168C7.51632 38.415 7.40117 38.3211 7.28797 38.2311C7.31334 38.1979 7.35237 38.1509 7.41093 38.0824L7.98278 37.4485C8.14673 37.2686 8.30872 37.0886 8.47071 36.9066L8.49218 36.8831L8.80446 37.1551L9.11869 37.429L9.09917 37.4544L8.63856 38.0081C8.4564 38.2298 8.27294 38.4509 8.08818 38.6713ZM10.4556 40.8488L10.116 41.2577L10.0906 41.2871C10.0419 41.2421 9.99306 41.1971 9.94232 41.154L9.79008 41.023L9.81545 40.9956C9.93061 40.8645 10.0477 40.7354 10.1648 40.6043L10.4302 40.3108L10.5669 40.4302L10.7035 40.5495L10.4556 40.8488ZM11.0841 40.3499C10.9982 40.2776 10.9143 40.2032 10.8284 40.1269L10.5727 39.9058C10.4556 39.8021 10.321 39.8354 10.1707 40.0037L10.0594 40.1269L8.51756 38.777C8.66198 38.6068 8.80446 38.4346 8.94498 38.2624L9.14016 38.0296L16.2718 44.4858H14.7104L10.8596 40.9858L11.045 40.7628C11.1895 40.5886 11.2031 40.4497 11.0841 40.3499ZM11.127 41.7703L14.121 44.4917H13.1666C12.7918 44.4917 12.7665 44.9124 12.7587 45.1256L12.6259 45.9317L11.127 41.7703ZM17.5989 48.8898C17.0837 48.8761 16.3108 48.8683 15.7526 48.8663H14.6382C13.9648 48.8663 13.0944 48.878 12.5498 48.8878L13.1529 45.1706V45.1471C13.1539 45.0581 13.1651 44.9695 13.1861 44.883C13.6701 44.883 14.162 44.883 14.6362 44.883H15.7019C16.2132 44.883 16.9627 44.883 17.4955 44.883C17.6536 45.106 18.1259 46.0119 18.526 46.8394L19.5878 48.8878C18.9925 48.8917 17.7707 48.8937 17.5989 48.8898ZM18.8832 46.6614C18.7778 46.4423 18.688 46.2466 18.5924 46.0745H20.8818V46.8375H18.973L18.8832 46.6614Z" fill="white"/>
</g>
<defs>
<clipPath id="clip0">
<rect x="0.997559" y="0.00830078" width="60" height="60" fill="white"/>
</clipPath>
</defs>
</svg>
