<svg width="14" height="14" viewBox="0 0 14 14" fill="none" xmlns="http://www.w3.org/2000/svg">
<path d="M2.76129 5.50007L2.50457 5.75679L2.66922 6.08037C3.78385 8.27094 5.57901 10.0661 7.76958 11.1807L8.09316 11.3454L8.34988 11.0887L9.97951 9.45903C10.0488 9.38976 10.1404 9.36955 10.2291 9.3965C11.1077 9.68626 12.048 9.84251 13.026 9.84251C13.0898 9.84251 13.151 9.86787 13.1962 9.91302C13.2413 9.95817 13.2667 10.0194 13.2667 10.0833V12.6758C13.2667 12.7397 13.2413 12.8009 13.1962 12.8461C13.151 12.8912 13.0898 12.9166 13.026 12.9166C9.8188 12.9166 6.743 11.6425 4.4752 9.37475C2.2074 7.10694 0.933365 4.03115 0.933365 0.823993C0.933365 0.760144 0.958729 0.698911 1.00388 0.653763C1.04902 0.608616 1.11026 0.583252 1.17411 0.583252H3.7667C3.83055 0.583252 3.89178 0.608616 3.93693 0.653763C3.98207 0.698911 4.00744 0.760144 4.00744 0.823993C4.00744 1.80193 4.1637 2.74226 4.45345 3.62091C4.48039 3.70957 4.46018 3.80118 4.39092 3.87044L2.76129 5.50007Z" fill="#C01818" stroke="#C01818"/>
</svg>
