<svg width="31" height="30" viewBox="0 0 31 30" fill="none" xmlns="http://www.w3.org/2000/svg">
<path d="M24.7475 9.52716L24.7412 9.54748L24.7366 9.56827C24.6723 9.86279 24.4515 10.3565 24.1156 10.9737C23.7884 11.5749 23.379 12.2455 22.9758 12.8759C22.5732 13.5053 22.1802 14.0894 21.8876 14.5164C21.7414 14.7298 21.6205 14.9037 21.5363 15.024C21.4942 15.0841 21.4613 15.1309 21.4389 15.1625L21.4136 15.1983L21.4072 15.2073L21.4057 15.2094L21.4053 15.2099L21.4053 15.21L21.8126 15.5L21.4053 15.21L21.3939 15.226L21.3839 15.2428C21.3787 15.2514 21.3734 15.2601 21.368 15.2691C21.2545 15.4578 21.0998 15.7147 21.0753 16.0065C21.046 16.3554 21.1974 16.6503 21.4127 16.9253C21.5802 17.1572 21.894 17.4635 22.193 17.7553L22.2211 17.7828L22.2226 17.7842C22.556 18.1097 22.9067 18.4521 23.1825 18.7748L23.1824 18.7749L23.1887 18.7819C23.7294 19.391 24.1957 19.9434 24.5525 20.4267C24.9129 20.9148 25.1328 21.2947 25.2209 21.5679C25.2919 21.8267 25.2307 21.8962 25.2261 21.9014L25.2259 21.9016C25.2074 21.9229 25.1116 22 24.8126 22H22.2876C22.1177 22 21.9985 21.968 21.8863 21.9092C21.7633 21.8446 21.6259 21.7358 21.4363 21.5447C21.2841 21.3914 21.1185 21.2064 20.911 20.9748C20.8569 20.9144 20.8 20.8509 20.7398 20.784C20.4534 20.4656 20.1062 20.0865 19.6662 19.6464L19.6662 19.6464L19.6586 19.639C18.1505 18.1938 17.3868 17.875 16.8001 17.875C16.5323 17.875 16.1454 17.9038 15.8867 18.2261C15.7672 18.3751 15.7091 18.547 15.6781 18.7073C15.6473 18.8671 15.6376 19.0464 15.6376 19.2375V21.5125C15.6376 21.7724 15.5958 21.8001 15.5611 21.823C15.5599 21.8238 15.5587 21.8246 15.5575 21.8254C15.4436 21.9018 15.1311 22 14.3251 22C11.8361 22 9.02674 20.4866 7.01107 17.5777L7.01111 17.5777L7.0072 17.5722C5.46028 15.4028 4.47868 13.5047 3.88539 12.0741C3.58863 11.3585 3.38993 10.7621 3.26621 10.3092C3.13857 9.84205 3.1001 9.56122 3.1001 9.4625C3.1001 9.39975 3.10667 9.3598 3.11376 9.33603C3.11705 9.32503 3.11999 9.31905 3.12146 9.31644C3.12276 9.31411 3.12352 9.31328 3.12408 9.31269C3.12464 9.31212 3.1276 9.30908 3.13542 9.30435C3.14351 9.29946 3.15842 9.29178 3.18317 9.28366C3.23416 9.26692 3.32184 9.25 3.4626 9.25H6.0001C6.24697 9.25 6.32946 9.30206 6.37888 9.34788C6.45508 9.41854 6.54412 9.56293 6.66575 9.90295C7.29674 11.7378 8.14737 13.4626 8.95428 14.7363C9.35705 15.3721 9.75764 15.9094 10.1241 16.2943C10.3067 16.4863 10.4922 16.6524 10.6758 16.7739C10.8496 16.8891 11.0748 17 11.3251 17C11.4371 17 11.5879 16.9877 11.7399 16.9171C11.9049 16.8405 12.0286 16.7154 12.1127 16.561C12.2565 16.2968 12.2876 15.9344 12.2876 15.525V11.8V11.7909L12.2873 11.7818C12.252 10.8154 11.9624 10.2537 11.6658 9.85372C11.5987 9.76335 11.5329 9.68323 11.4788 9.61743L11.4738 9.61135C11.4155 9.54039 11.3752 9.4908 11.3428 9.44516C11.2859 9.36504 11.2873 9.34283 11.2876 9.33812C11.2876 9.33786 11.2876 9.33766 11.2876 9.3375C11.2876 9.32873 11.2927 9.30695 11.3124 9.28697C11.3211 9.27813 11.3327 9.26969 11.3486 9.26311C11.3641 9.25667 11.3885 9.25 11.4251 9.25H15.4126C15.4934 9.25 15.5344 9.25974 15.5506 9.26511C15.5564 9.27698 15.5673 9.30417 15.5773 9.3561C15.5914 9.42951 15.6001 9.53217 15.6001 9.675V14.7C15.6001 15.3732 15.9644 15.925 16.5251 15.925C16.8064 15.925 17.0479 15.8366 17.2922 15.6744C17.5174 15.5249 17.7633 15.3001 18.0624 15.0073L18.0747 14.9953L18.0861 14.9825C19.0377 13.9135 19.8378 12.5759 20.3953 11.5211C20.6756 10.9908 20.8977 10.5258 21.0501 10.1928C21.1263 10.0262 21.1852 9.8923 21.2253 9.79951C21.2453 9.75311 21.2606 9.71696 21.2711 9.69208L21.2831 9.66336L21.2855 9.65767C21.3464 9.51804 21.414 9.42489 21.494 9.36433C21.5681 9.30829 21.6922 9.25 21.9251 9.25H24.4501C24.6723 9.25 24.7556 9.29014 24.779 9.30537C24.7833 9.32516 24.7903 9.38869 24.7475 9.52716ZM24.7866 9.31114C24.7866 9.31116 24.7862 9.31087 24.7857 9.31026C24.7863 9.31082 24.7866 9.31113 24.7866 9.31114Z" fill="#C01818" stroke="#C01818"/>
</svg>
