<svg width="101" height="101" viewBox="0 0 101 101" fill="none" xmlns="http://www.w3.org/2000/svg">
<path d="M99.75 8.2539V92.9214C99.75 96.6727 96.717 99.7096 92.9808 99.7096H8.51929C4.78304 99.7096 1.75004 96.6727 1.75004 92.9214V8.2539C1.75004 4.50258 4.78304 1.4657 8.51929 1.4657L92.9808 1.4657C96.717 1.4657 99.75 4.50258 99.75 8.2539Z" stroke="#C01818" stroke-width="2"/>
<path d="M51.8667 42.5591H51.5653V43.9327H51.8667" fill="#C01818"/>
<path d="M35.7185 57.9844L51.5927 57.9432C46.1871 57.9157 40.8637 57.9432 35.7185 57.9844Z" fill="#C01818"/>
<path d="M33.9577 59.3992H35.8076H33.5056C33.6631 59.3992 33.8001 59.406 33.9577 59.3992Z" fill="#C01818"/>
<path d="M52.1613 57.9156H51.5653V59.2892H51.8667" fill="#C01818"/>
<path d="M35.8075 59.3855L51.5653 59.3443C46.2282 59.3237 40.9459 59.3443 35.8075 59.3855Z" fill="#C01818"/>
<path d="M51.209 42.5591H51.4762V43.9327H51.1816" fill="#C01818"/>
<path d="M67.3847 57.9844L51.4762 57.9432C56.8887 57.9157 62.212 57.9432 67.3847 57.9844Z" fill="#C01818"/>
<path d="M69.1181 59.3992H67.2614H69.5703C69.4264 59.3992 69.2894 59.406 69.1181 59.3992Z" fill="#C01818"/>
<path d="M50.9076 57.9156H51.4762V59.2892H51.1816" fill="#C01818"/>
<path d="M75.7363 75.8546C75.7043 73.9591 75.6655 72.0704 75.6198 70.1886C75.5787 68.5999 75.5444 67.0134 75.517 65.4292C75.517 64.5501 75.517 63.2314 74.3797 63.2314C73.1328 63.2314 71.8791 63.2314 70.6253 63.2314C69.3715 63.2314 68.1109 63.2314 66.864 63.2314C65.7883 63.2314 65.7609 64.5569 65.7472 65.4292C65.7472 67.0225 65.6856 68.6227 65.6445 70.2367L51.5584 70.3123L37.4655 70.2367L37.3627 65.4292C37.3627 64.5569 37.3216 63.2314 36.246 63.2314C34.9922 63.2314 33.7385 63.2314 32.4847 63.2314C31.2309 63.2314 29.9771 63.2314 28.7234 63.2314C27.6066 63.2314 27.6066 64.5501 27.5861 65.4292C27.5587 67.0179 27.5267 68.6044 27.4902 70.1886C27.4491 72.0704 27.4102 73.9591 27.3737 75.8546C27.3394 77.6403 27.4902 78.4645 27.9286 78.8971C28.0312 78.998 28.1537 79.0764 28.2881 79.1273C28.4226 79.1781 28.5662 79.2003 28.7097 79.1925C29.936 79.1444 31.2035 79.1169 32.4847 79.1169C33.7659 79.1169 35.0333 79.1169 36.2597 79.1925H36.3008C36.5763 79.194 36.8416 79.0881 37.0407 78.8971C37.4792 78.4645 37.6299 77.6403 37.5957 75.8546C37.5957 74.4399 37.5409 73.0319 37.5066 71.6172L51.5379 71.6927H51.5995L65.6308 71.6172C65.6308 73.0319 65.5691 74.4399 65.5417 75.8546C65.5417 77.6403 65.665 78.4645 66.1035 78.8971C66.3001 79.0876 66.5632 79.1936 66.8366 79.1925H66.8845C68.104 79.1444 69.3715 79.11 70.6527 79.1169C71.9339 79.1238 73.2082 79.1169 74.4277 79.1925C74.5713 79.2007 74.7149 79.1787 74.8495 79.1279C74.984 79.077 75.1064 78.9984 75.2087 78.8971C75.613 78.4645 75.7637 77.6403 75.7363 75.8546ZM36.0542 77.7845C34.9032 77.7433 33.7179 77.7159 32.5189 77.7159H32.4504C31.2378 77.7159 30.0183 77.7159 28.8467 77.7845C28.7296 77.1553 28.6928 76.5138 28.7371 75.8753C28.7713 73.9866 28.8124 72.1048 28.8535 70.2161C28.8901 68.6273 28.9221 67.0408 28.9495 65.4566C28.9495 65.0446 28.9495 64.7699 29.0043 64.6394H35.8966C35.9279 64.9107 35.9439 65.1835 35.9445 65.4566L36.0473 70.2642C36.0884 72.1391 36.1295 74.0209 36.1638 75.8959C36.2022 76.5275 36.1654 77.1616 36.0542 77.7845ZM74.229 77.7845C73.0506 77.7365 71.8311 77.7227 70.6184 77.7159H70.5568C69.3578 77.7159 68.1657 77.7159 67.0147 77.7845C66.9018 77.1548 66.865 76.5138 66.9051 75.8753C66.9393 74.0003 66.9805 72.1185 67.0216 70.2436C67.0558 68.6502 67.0969 67.0569 67.1243 65.436C67.125 65.1629 67.141 64.8901 67.1723 64.6188H74.0851C74.1164 64.8901 74.1325 65.1629 74.1331 65.436C74.1605 67.0248 74.1948 68.6113 74.2359 70.1955C74.277 72.0842 74.3181 73.966 74.3523 75.8546C74.3896 76.5006 74.3481 77.1486 74.229 77.7845Z" fill="#C01818"/>
<path d="M68.2342 37.8958V37.209H55.8267L54.4565 19.7096H48.6604L47.2901 37.209H45.9953L45.824 31.8383L36.6365 30.8699V37.209H34.8347V37.8958L34.6017 40.8147L35.972 40.9245L36.1501 38.6238H66.8914L67.0764 40.9245L68.4466 40.8147L68.2342 37.8958ZM38.0342 37.209V32.4015L44.4674 33.0883L44.5976 37.209H38.0342ZM51.5653 37.209H48.6467L49.921 21.1931H53.1479L54.4222 37.209H51.5653Z" fill="#C01818"/>
<path d="M67.234 59.3855L51.4762 59.3443C56.8476 59.3237 62.1298 59.3443 67.234 59.3855Z" fill="#C01818"/>
<path d="M72.4135 52.6618C72.3244 51.714 72.2354 50.7663 72.1394 49.8391C71.9819 48.1839 71.8106 46.4738 71.6736 44.7981C71.5023 42.8132 70.1457 42.5522 68.9742 42.5522C63.1644 42.5522 57.3568 42.5522 51.5516 42.5522C45.7464 42.5522 39.9388 42.5522 34.129 42.5522C32.9575 42.5522 31.6009 42.8132 31.4365 44.7981C31.2926 46.4738 31.1282 48.1839 30.9638 49.8391C30.8747 50.7663 30.7788 51.714 30.6897 52.6618L30.0046 59.2069V59.3992H35.8555C40.9802 59.358 46.2556 59.3374 51.6133 59.3374C56.9709 59.3374 62.2121 59.3374 67.371 59.3992H73.2219V59.1863L72.4135 52.6618ZM69.5291 57.9913H69.1318H67.3847L51.5653 57.9501H51.4762L35.7185 57.9844H33.9714H33.5741C33.0458 58.0231 32.523 57.8558 32.1148 57.5174C31.9618 57.2915 31.8552 57.0373 31.8011 56.7696C31.747 56.502 31.7465 56.2262 31.7996 55.9584C31.9572 53.9598 32.1559 51.9269 32.3477 49.9696C32.5121 48.3076 32.6834 46.5974 32.8204 44.9079C32.8821 44.1525 33.0534 43.9464 34.1222 43.9464C39.9274 43.9464 45.7258 43.9464 51.5173 43.9464H51.579C57.3751 43.9464 63.1735 43.9464 68.9742 43.9464C70.0361 43.9464 70.2074 44.1525 70.2691 44.9079C70.4129 46.5974 70.5842 48.3419 70.7418 49.9696C70.9336 51.9269 71.1323 53.9598 71.2899 55.9584C71.3462 56.2261 71.3473 56.5025 71.2931 56.7706C71.2389 57.0387 71.1306 57.2928 70.9747 57.5174C70.571 57.8549 70.0537 58.0244 69.5291 57.9913Z" fill="#C01818"/>
<path d="M64.4935 61.1573H63.1233V63.2177H39.9868V61.1573H38.6165L38.5138 64.6806L39.562 66.1709C40.1649 66.8577 40.7884 67.5033 41.6174 67.5445C44.9196 67.6132 48.2151 67.6498 51.5036 67.6544H51.5653C54.8539 67.6544 58.1561 67.6132 61.4516 67.5445C62.2669 67.5445 62.8903 66.8577 63.5069 66.1709L64.5483 64.6806L64.4935 61.1573ZM62.4381 65.2094C62.1298 65.5391 61.6091 66.1022 61.3899 66.1091C58.0876 66.1778 54.7854 66.219 51.5036 66.2259C48.2219 66.2327 44.9128 66.1778 41.6174 66.1091C41.3913 66.1091 40.8774 65.5391 40.5623 65.2094C40.4253 65.0583 40.2882 64.9072 40.1444 64.7699L40.1786 64.6668H62.8218V64.7699C62.7464 64.9072 62.6094 65.0583 62.4724 65.2094H62.4381Z" fill="#C01818"/>
</svg>
