<svg width="100" height="101" viewBox="0 0 100 101" fill="none" xmlns="http://www.w3.org/2000/svg">
<path d="M99 8.49679V92.9583C99 96.6968 95.9693 99.7275 92.2308 99.7275H7.76925C4.03069 99.7275 1 96.6968 1 92.9583V8.49679C1 4.75824 4.03069 1.72754 7.76925 1.72754L92.2308 1.72754C95.9693 1.72754 99 4.75824 99 8.49679Z" stroke="#C01818" stroke-width="2"/>
<path d="M37.9762 79.3656C37.9762 79.7904 37.9762 80.222 37.9762 80.6536C37.9762 81.0853 37.9762 81.7087 37.9762 82.2363C37.9762 82.3185 37.9762 82.3938 37.9762 82.4486C37.709 82.4486 37.4349 82.4486 37.1678 82.4486V79.3656H37.2568H37.9762Z" fill="#C01818"/>
<path d="M38.5585 78.331H37.5171H37.1335H36.0852C35.9659 78.3265 35.8472 78.3492 35.7379 78.3973C35.6286 78.4454 35.5317 78.5178 35.4545 78.6088C35.3773 78.6999 35.3218 78.8073 35.2922 78.923C35.2626 79.0386 35.2597 79.1595 35.2836 79.2765C35.2836 79.7287 35.2836 80.1808 35.2836 80.6467C35.2836 81.1126 35.2836 81.7018 35.2836 82.2293C35.2836 82.7569 35.359 83.1131 35.6673 83.3187C35.828 83.4238 36.0165 83.4787 36.2086 83.4763H36.2702L37.3116 83.442L38.3461 83.4763H38.4078C38.6019 83.4776 38.7922 83.4229 38.9559 83.3187C39.2642 83.1131 39.3259 82.7774 39.3327 82.2293C39.3396 81.6812 39.3327 81.1743 39.3327 80.6467V79.2765C39.3944 79.023 39.3944 78.3447 38.5585 78.331ZM37.9625 80.633C37.9625 81.1606 37.9625 81.6881 37.9625 82.2156C37.9625 82.2979 37.9625 82.3732 37.9625 82.428H37.5377H37.1335H36.7018C36.7018 82.3732 36.7018 82.2979 36.7018 82.2156C36.7018 81.6881 36.7018 81.1606 36.7018 80.633C36.7018 80.1055 36.7018 79.7698 36.7018 79.345H37.387H38.0721C37.9762 79.7698 37.9693 80.2014 37.9625 80.633Z" fill="#C01818"/>
<path d="M42.4569 79.3656C42.4569 79.7972 42.4569 80.222 42.4569 80.6536V82.2363C42.4609 82.307 42.4609 82.3779 42.4569 82.4486H41.6485V79.3725H41.7444L42.4569 79.3656Z" fill="#C01818"/>
<path d="M63.5654 79.3656C63.5654 79.7904 63.5654 80.222 63.5654 80.6536V82.2363C63.5615 82.307 63.5615 82.3779 63.5654 82.4486C63.8326 82.4486 64.1067 82.4486 64.3739 82.4486V79.3656H64.2779H63.5654Z" fill="#C01818"/>
<path d="M62.1678 79.2764C62.1678 79.7286 62.1678 80.1808 62.1678 80.6467V82.2293C62.1678 82.7774 62.2363 83.1131 62.5446 83.3186C62.7074 83.4247 62.8983 83.4796 63.0927 83.4762H63.1543L64.1889 83.442L65.2234 83.4762H65.2851C65.4794 83.4796 65.6703 83.4247 65.8331 83.3186C66.1415 83.1131 66.2031 82.7774 66.2168 82.2293C66.2305 81.6812 66.2168 81.1742 66.2168 80.6467C66.2168 80.1191 66.2168 79.7355 66.2168 79.2764C66.2413 79.1577 66.2381 79.0349 66.2074 78.9176C66.1766 78.8003 66.1193 78.6917 66.0397 78.6002C65.9602 78.5088 65.8606 78.4369 65.7487 78.3902C65.6368 78.3435 65.5157 78.3232 65.3947 78.331H64.3533H64.0587H63.0173C62.1609 78.3447 62.1678 79.0229 62.1678 79.2764ZM63.538 79.3449H64.2231H64.9082C64.9082 79.7697 64.9082 80.2014 64.9082 80.633C64.9082 81.0646 64.9082 81.6881 64.9082 82.2156C64.9082 82.2978 64.9082 82.3732 64.9082 82.428H64.4835H64.0587H63.6339C63.63 82.3572 63.63 82.2863 63.6339 82.2156V80.633C63.5791 80.2014 63.5723 79.7697 63.5654 79.3655L63.538 79.3449Z" fill="#C01818"/>
<path d="M59.0916 79.3656C59.0916 79.7972 59.0916 80.222 59.0916 80.6536V82.2363C59.0876 82.307 59.0876 82.3779 59.0916 82.4486H59.9V79.3725H59.8041L59.0916 79.3656Z" fill="#C01818"/>
<path d="M57.6939 79.2627C57.6939 79.7217 57.6939 80.1739 57.6939 80.6329V82.2224C57.6939 82.7637 57.7624 83.0994 58.0707 83.3049C58.2336 83.411 58.4245 83.4659 58.6188 83.4625H58.6805C59.0162 83.4625 59.3656 83.4625 59.715 83.4214C60.0644 83.3803 60.4001 83.4214 60.7495 83.4625H60.8112C61.0055 83.4659 61.1964 83.411 61.3593 83.3049C61.6676 83.0994 61.7292 82.7637 61.7361 82.2224V80.6329C61.7361 80.1808 61.7361 79.7286 61.7361 79.2627C61.7361 79.0092 61.7361 78.3309 60.914 78.3241H59.8726H59.4889H58.4475C57.6802 78.3309 57.6939 79.0092 57.6939 79.2627ZM59.0641 79.3312H59.7493H60.4344C60.4344 79.7628 60.4344 80.1876 60.4344 80.6192V82.2019C60.4384 82.2726 60.4384 82.3435 60.4344 82.4143H59.9479H59.5643H59.1395C59.1355 82.3435 59.1355 82.2726 59.1395 82.2019V80.6192C59.1052 80.1876 59.0984 79.7628 59.0915 79.3655L59.0641 79.3312Z" fill="#C01818"/>
<path d="M79.5835 81.969V70.5275H78.2132H67.2102V68.3283H57.1595V69.2326H55.7893V66.5538H54.419V69.2326H47.1842V66.5538H45.8139V69.2326H44.4437V68.3283H34.3656V70.5275H23.3626H21.9923V81.969H20.7728V83.3392H24.3217V81.969H23.3626V74.6177H34.3656V79.6602H39.7438C39.7438 79.989 39.7438 80.3453 39.7438 80.6467C39.7438 81.1743 39.7438 81.7018 39.7438 82.2362C39.7438 82.7706 39.8191 83.1132 40.1274 83.3187C40.2903 83.4248 40.4812 83.4797 40.6755 83.4763H40.7646C41.1003 83.4763 41.4497 83.4763 41.7991 83.4352C42.1485 83.3941 42.4843 83.4352 42.8337 83.4763H42.8953C43.0897 83.4797 43.2806 83.4248 43.4434 83.3187C43.7517 83.1132 43.8134 82.7775 43.8202 82.2362V80.6467C43.8202 80.3179 43.8202 79.9616 43.8202 79.6602H44.3615V77.7966H57.1595V79.6602H67.1828V74.5697H78.1858V81.969H77.1992V83.3392H80.7756V81.969H79.5835ZM34.3656 73.1995H23.3626V71.9183H34.3656V73.1995ZM42.4431 80.6193V82.202C42.4472 82.2727 42.4472 82.3436 42.4431 82.4143H42.0184H41.6347H41.2099C41.2099 82.3595 41.2099 82.291 41.2099 82.202C41.2099 81.6744 41.2099 81.1469 41.2099 80.6193C41.2099 80.2905 41.2099 79.9685 41.2099 79.6396H42.5117C42.45 79.9685 42.4431 80.2905 42.4431 80.6193ZM42.9912 78.242H35.7632V69.7191H42.9912V78.242ZM57.1595 76.3784H44.3889V70.6234H57.1595V76.3784ZM65.7852 78.242H58.5777V69.7191H65.7852V78.242ZM67.1554 73.1995V71.9183H78.1584V73.1995H67.1554Z" fill="#C01818"/>
<path d="M70.17 56.9896V51.5086H68.7997L60.0576 51.5498C57.9269 47.439 57.598 47.439 57.1938 47.439H54.6726L28.4325 23.7134L28.4736 23.6654C28.7545 23.3228 29.4328 22.5213 28.7477 21.9389C28.2544 21.521 27.7679 21.0962 27.2815 20.6714L25.8222 19.404C25.1371 18.8079 24.452 19.589 24.1505 19.9247L22.4583 21.8156L20.444 24.0422C19.7178 24.8507 19.4849 25.2754 19.526 25.7071C19.5336 25.8223 19.5664 25.9346 19.6219 26.0359L21.2867 37.4363L20.9853 39.4917C20.5262 40.0535 19.615 41.3346 20.1768 42.287C20.356 42.5532 20.6045 42.7654 20.8955 42.9006C21.1865 43.0358 21.5089 43.089 21.828 43.0543C22.2656 43.0441 22.7013 42.9936 23.1297 42.9036L22.8625 41.5333C22.3866 41.6752 21.8833 41.6987 21.3963 41.6018C21.5522 41.1107 21.8168 40.6611 22.1705 40.2864L22.3075 40.1288L22.6775 37.5733H22.7186V37.4432L23.9655 28.9066C24.1513 28.7809 24.3235 28.6363 24.4794 28.4749L29.8644 33.1817C29.5424 33.5311 29.2204 33.8668 28.9052 34.2436C28.4668 34.7369 28.2201 35.0726 28.2681 35.4769C28.2768 35.5862 28.3081 35.6926 28.36 35.7893C28.4119 35.886 28.4832 35.9709 28.5695 36.0387C28.8778 36.2853 29.1793 36.5319 29.4739 36.7923C29.7685 37.0526 30.0631 37.313 30.3508 37.5802C30.4978 37.7221 30.6946 37.8009 30.8989 37.7994H30.9469C31.3511 37.7994 31.632 37.498 32.0773 36.9978C32.2281 36.806 32.3856 36.621 32.5432 36.436L39.3533 55.2974L37.894 64.2519H38.7367C40.4632 64.2108 44.1354 64.1765 46.8759 64.1697H50.6167C52.5761 64.1697 55.4125 64.1697 57.2349 64.2519H66.5525L62.8186 57.0581L70.17 56.9896ZM21.9924 32.6062L21.2388 27.4747L21.3347 27.55C21.7594 27.92 22.1705 28.29 22.5679 28.6668L21.9924 32.6062ZM23.8628 27.0362C23.6641 27.276 23.5134 27.4336 23.4106 27.5363C23.0338 27.1869 22.6501 26.8512 22.2527 26.495C21.8554 26.1387 21.4511 25.8098 21.0538 25.4947C21.1428 25.3782 21.2799 25.2138 21.4854 24.974L23.4928 22.7542C24.0683 22.1239 24.6369 21.4936 25.2056 20.8564L25.281 20.7742L26.3772 21.7265L27.4802 22.6857L27.4117 22.7748L25.7948 24.7136C25.1554 25.4901 24.5113 26.2643 23.8628 27.0362ZM32.1733 34.6616L30.9812 36.0935L30.8921 36.1962C30.7208 36.0387 30.5495 35.8811 30.3714 35.7304L29.837 35.2713L29.9261 35.1754C30.3303 34.7164 30.7414 34.2642 31.1524 33.8052L32.0842 32.7775L32.5638 33.1954L33.0434 33.6133L32.1733 34.6616ZM34.3793 32.9145C34.0779 32.661 33.7833 32.4007 33.4818 32.1335L32.5843 31.3593C32.1733 30.9962 31.7005 31.1126 31.173 31.7019L30.7825 32.1335L25.37 27.4062C25.877 26.8101 26.3772 26.2072 26.8704 25.6043L27.5556 24.789L52.5898 47.3979H47.1089L33.5915 35.1412L34.2423 34.3601C34.7493 33.7504 34.7973 33.2639 34.3793 32.9145ZM34.5301 37.8885L45.0398 47.4185H41.6896C40.3741 47.4185 40.2851 48.8915 40.2577 49.6383L39.7918 52.461L34.5301 37.8885ZM57.2486 62.82C55.4399 62.772 52.7268 62.7446 50.7674 62.7378H46.8554C44.4917 62.7378 41.4361 62.7789 39.5246 62.8131L41.6416 49.7959V49.7136C41.6452 49.4019 41.6843 49.0916 41.7581 48.7887C43.4572 48.7887 45.1837 48.7887 46.8485 48.7887H50.5893C52.3843 48.7887 55.0151 48.7887 56.8855 48.7887C57.4405 49.5698 59.0984 52.7419 60.5029 55.6399L64.23 62.8131C62.1404 62.8268 57.8515 62.8337 57.2486 62.82ZM61.7567 55.0165C61.3867 54.2491 61.0716 53.564 60.7359 52.9611H68.7723V55.6331H62.0719L61.7567 55.0165Z" fill="#C01818"/>
</svg>
