<svg width="102" height="103" viewBox="0 0 102 103" fill="none" xmlns="http://www.w3.org/2000/svg">
<path fill-rule="evenodd" clip-rule="evenodd" d="M100 9.46041C100 5.73469 96.9716 2.71021 93.2308 2.71021L8.76925 2.71021C5.02837 2.71021 2 5.73469 2 9.46041V93.7149C2 97.4406 5.02838 100.465 8.76925 100.465H93.2308C96.9716 100.465 100 97.4406 100 93.7149V9.46041ZM93.2308 0.710205C98.0716 0.710205 102 4.62549 102 9.46041V93.7149C102 98.5498 98.0716 102.465 93.2308 102.465H8.76925C3.92844 102.465 0 98.5498 0 93.7149V9.46041C0 4.62549 3.92844 0.710205 8.76925 0.710205L93.2308 0.710205Z" fill="#C01818"/>
<path d="M28.3684 36.3716L20.5015 37.9097V50.648H28.3684V36.3716ZM27.1097 49.3924H21.8231V38.9833L27.1097 37.9348V49.3924Z" fill="#C01818"/>
<path d="M38.7842 64.2776H29.0418V72.232H41.7296L38.7842 64.2776ZM30.3257 65.5332H37.878L39.8793 70.9261H30.3131L30.3257 65.5332Z" fill="#C01818"/>
<path d="M40.1625 82.0383C40.1995 82.8179 40.1488 83.5992 40.0115 84.3675C38.6898 84.3173 37.3241 84.2985 35.9396 84.2922C34.555 84.2859 33.1893 84.2922 31.8676 84.3675C31.735 83.6008 31.6886 82.8216 31.7292 82.0446C31.7292 81.4168 31.7292 80.7576 31.7732 80.111H30.5145C30.5145 80.7388 30.5145 81.3666 30.4705 81.9944C30.4705 83.6581 30.5901 84.9012 31.0243 85.3218C31.1215 85.4192 31.2373 85.4961 31.3649 85.5478C31.4925 85.5996 31.6292 85.6252 31.7669 85.6231H31.8047C33.1515 85.5729 34.555 85.5478 35.9647 85.5478C37.3745 85.5478 38.7779 85.5478 40.1248 85.6231C40.2697 85.6302 40.4145 85.607 40.5499 85.5551C40.6854 85.5032 40.8085 85.4238 40.9115 85.3218C41.3394 84.9012 41.4968 83.6581 41.459 81.9944L41.4212 80.111H40.1625V82.0383Z" fill="#C01818"/>
<path d="M40.1248 80.0796H41.3835V80.0231L40.1248 80.0796Z" fill="#C01818"/>
<path d="M31.7858 80.0796L30.5271 80.0482V80.1047H31.7858V80.0796Z" fill="#C01818"/>
<path d="M67.4262 31.2107H30.1181V49.976C30.1121 51.174 30.5237 52.337 31.2824 53.2657V53.6047H31.5845C31.9771 54.0012 32.4445 54.3162 32.9597 54.5317C33.4749 54.7472 34.0278 54.8589 34.5865 54.8603H67.4262C67.9839 54.8588 68.5358 54.747 69.0499 54.5315C69.5641 54.316 70.0304 54.001 70.4219 53.6047H70.7303V53.2657C71.489 52.337 71.9006 51.174 71.8946 49.976V31.2107H67.4262ZM70.7303 36.1202V49.976C70.7697 50.893 70.4448 51.7886 69.8261 52.468C69.2075 53.1475 68.345 53.556 67.4262 53.6047H34.5865C33.667 53.5576 32.8036 53.1496 32.1846 52.4697C31.5656 51.7899 31.2413 50.8935 31.2824 49.976V32.8242C31.3768 32.7112 31.4775 32.5982 31.5845 32.4914H70.4219C70.5289 32.5982 70.6296 32.7112 70.7303 32.8242V36.1202Z" fill="#C01818"/>
<path d="M72.1337 28.4546L68.6597 25.4286H51.1699H50.8427H33.3466L29.8789 28.4546H26.8014V35.1597H28.0852V29.7417H30.3572L33.8312 26.7093H50.8427H51.1699H68.1814L71.6491 29.7417H73.9274V35.1597H75.2113V28.4546H72.1337Z" fill="#C01818"/>
<path d="M73.6441 50.6729H81.4985V37.9094L73.6441 36.3462V50.6729ZM74.9029 37.9346L80.1894 38.983V49.3921H74.9029V37.9346Z" fill="#C01818"/>
<path d="M60.2767 72.2382H72.9707V64.2776H63.2283L60.2767 72.2382ZM71.6869 70.9826H62.1207L64.122 65.5897H71.6743L71.6869 70.9826Z" fill="#C01818"/>
<path d="M75.1483 51.8157L73.877 51.9977L74.0658 53.3099L71.6491 55.0489V61.6849H61.441L57.7656 70.9577H51.1699H50.8427H44.247L40.5716 61.6849H30.3635V55.0489L27.9468 53.3099L28.1356 51.9977L26.8643 51.8157L26.5622 53.8937L29.0796 55.7018V62.9656H39.6968L43.3722 72.2384H50.8427H51.1699H58.6341L62.3158 62.9656H72.933V55.7018L75.4504 53.8937L75.1483 51.8157Z" fill="#C01818"/>
<path d="M61.8438 82.0384C61.8067 82.8154 61.8532 83.5941 61.9822 84.3613C63.3039 84.3111 64.6696 84.2922 66.0541 84.286C67.4387 84.2797 68.8107 84.286 70.1324 84.3613C70.265 83.5945 70.3114 82.8154 70.2708 82.0384C70.2708 81.4106 70.2394 80.7514 70.2268 80.1047H71.4855C71.4855 80.7325 71.5169 81.3604 71.5295 81.9882C71.561 83.6519 71.4037 84.8949 70.9757 85.3156C70.8785 85.413 70.7627 85.4899 70.6351 85.5416C70.5075 85.5934 70.3708 85.619 70.233 85.6169H70.2205C68.8737 85.5667 67.4765 85.5416 66.0604 85.5416C64.6444 85.5416 63.2535 85.5416 61.9067 85.6169C61.7618 85.6239 61.617 85.6008 61.4815 85.5489C61.3461 85.497 61.223 85.4176 61.12 85.3156C60.692 84.8949 60.5347 83.6519 60.5662 81.9882C60.5662 81.3604 60.5662 80.7325 60.6102 80.1047H61.8689C61.8752 80.7514 61.8564 81.3918 61.8438 82.0384Z" fill="#C01818"/>
<path d="M71.6868 73.4186V78.824H30.3257V73.4186H29.067V80.1048H30.5271V80.0483L31.7858 80.0797H40.1248L41.3835 80.0483V80.1048H60.5788V80.0483L61.8375 80.0797H70.2205L71.4792 80.0483V80.1048H72.9393V73.4186H71.6868Z" fill="#C01818"/>
<path d="M61.8878 80.0796H60.6291V80.0231L61.8878 80.0796Z" fill="#C01818"/>
<path d="M70.2205 80.0796L71.4792 80.0482V80.1047H70.2205V80.0796Z" fill="#C01818"/>
<path d="M28.4251 28.5776V16.8726L29.709 18.1596V28.5776H28.4251Z" fill="#C01818"/>
<path d="M73.6441 28.9301V17.2251L72.3603 18.5121V28.9301H73.6441Z" fill="#C01818"/>
<path fill-rule="evenodd" clip-rule="evenodd" d="M36.1565 17.8251C34.831 17.8251 33.7565 18.8996 33.7565 20.2251C33.7565 21.5506 34.831 22.6251 36.1565 22.6251C37.4819 22.6251 38.5565 21.5506 38.5565 20.2251C38.5565 18.8996 37.4819 17.8251 36.1565 17.8251ZM32.5565 20.2251C32.5565 18.2369 34.1682 16.6251 36.1565 16.6251C38.1447 16.6251 39.7565 18.2369 39.7565 20.2251C39.7565 22.2133 38.1447 23.8251 36.1565 23.8251C34.1682 23.8251 32.5565 22.2133 32.5565 20.2251Z" fill="#C01818"/>
<path fill-rule="evenodd" clip-rule="evenodd" d="M64.8878 19.8251C63.01 19.8251 61.4878 21.3474 61.4878 23.2251C61.4878 24.0851 61.8064 24.8698 62.3332 25.4689H67.4424C67.6685 25.2118 67.8562 24.9205 67.9968 24.6038C68.0385 24.4338 68.0969 24.2704 68.1702 24.1154C68.2469 23.8317 68.2878 23.5332 68.2878 23.2251C68.2878 21.3474 66.7656 19.8251 64.8878 19.8251ZM69.4724 22.8457C69.2795 20.4827 67.3006 18.6251 64.8878 18.6251C62.758 18.6251 60.9662 20.0726 60.4426 22.0374C59.7993 20.6149 58.3677 19.6251 56.705 19.6251C54.9051 19.6251 53.376 20.785 52.8245 22.398C52.3273 21.3499 51.2593 20.6251 50.0221 20.6251C48.7125 20.6251 47.5926 21.4372 47.1384 22.5853C46.4778 20.8545 44.8021 19.6251 42.8393 19.6251C40.2988 19.6251 38.2393 21.6846 38.2393 24.2251C38.2393 24.6557 38.2986 25.0729 38.4096 25.4689H36.6768C36.3293 23.8436 34.8853 22.6251 33.1565 22.6251C31.1682 22.6251 29.5565 24.2369 29.5565 26.2251C29.5565 26.8868 29.7354 27.5076 30.0473 28.0407L27.4264 30.2536H74.656L71.4106 27.6694C72.409 27.3064 73.1221 26.349 73.1221 25.2251C73.1221 23.7892 71.9581 22.6251 70.5221 22.6251C70.1486 22.6251 69.7934 22.7039 69.4724 22.8457ZM69.1454 24.9693C69.2008 24.8345 69.2498 24.6964 69.2923 24.5555C69.5298 24.1203 69.9915 23.8251 70.5221 23.8251C71.2953 23.8251 71.9221 24.4519 71.9221 25.2251C71.9221 25.9983 71.2953 26.6251 70.5221 26.6251C70.314 26.6251 70.1179 26.5801 69.9417 26.4997L69.4112 26.0772C69.2296 25.8411 69.1221 25.5464 69.1221 25.2251C69.1221 25.1377 69.1301 25.0522 69.1454 24.9693ZM68.2278 26.6689H33.5319L30.7076 29.0536H71.2226L68.2278 26.6689ZM30.985 27.2489L33.0931 25.4689H35.435C35.1182 24.5141 34.2177 23.8251 33.1565 23.8251C31.831 23.8251 30.7565 24.8996 30.7565 26.2251C30.7565 26.5917 30.8383 26.9385 30.985 27.2489ZM39.6738 25.4689H46.0048C46.1561 25.0842 46.2393 24.6649 46.2393 24.2251C46.2393 22.3474 44.7171 20.8251 42.8393 20.8251C40.9615 20.8251 39.4393 22.3474 39.4393 24.2251C39.4393 24.6649 39.5225 25.0842 39.6738 25.4689ZM47.269 25.4689H47.4587C47.411 25.3988 47.366 25.3266 47.324 25.2526C47.3074 25.3254 47.289 25.3975 47.269 25.4689ZM49.266 25.4689H50.7783C51.4522 25.1762 51.9221 24.5049 51.9221 23.7251C51.9221 22.6758 51.0715 21.8251 50.0221 21.8251C48.9728 21.8251 48.1221 22.6758 48.1221 23.7251C48.1221 24.5049 48.5921 25.1762 49.266 25.4689ZM52.5855 25.4689H52.9934C52.9298 25.3338 52.8734 25.1947 52.8246 25.052C52.7556 25.1976 52.6755 25.3369 52.5855 25.4689ZM54.3875 25.4689H59.0224C59.3884 24.9834 59.605 24.3801 59.605 23.7251C59.605 22.1235 58.3066 20.8251 56.705 20.8251C55.1033 20.8251 53.805 22.1235 53.805 23.7251C53.805 24.3801 54.0215 24.9834 54.3875 25.4689ZM60.4166 25.4689H60.8713C60.7771 25.3005 60.6931 25.1256 60.6203 24.945C60.5642 25.1253 60.4959 25.3002 60.4166 25.4689Z" fill="#C01818"/>
</svg>
