<svg width="30" height="30" viewBox="0 0 30 30" fill="none" xmlns="http://www.w3.org/2000/svg">
<path d="M8.66867 13.302L8.41195 13.5587L8.57659 13.8823C10.2246 17.121 12.879 19.7754 16.1177 21.4234L16.4413 21.5881L16.698 21.3313L19.1424 18.8869C19.3153 18.7141 19.5511 18.6642 19.7693 18.7316C21.0629 19.1585 22.4478 19.3889 23.8889 19.3889C24.051 19.3889 24.2064 19.4533 24.321 19.5679C24.4356 19.6825 24.5 19.8379 24.5 20V23.8889C24.5 24.051 24.4356 24.2064 24.321 24.321C24.2064 24.4356 24.051 24.5 23.8889 24.5C19.0119 24.5 14.3346 22.5626 10.886 19.114C7.4374 15.6654 5.5 10.9881 5.5 6.11111C5.5 5.94903 5.56438 5.7936 5.67899 5.67899C5.7936 5.56438 5.94903 5.5 6.11111 5.5H10C10.1621 5.5 10.3175 5.56438 10.4321 5.67899L10.7857 5.32544L10.4321 5.67899C10.5467 5.7936 10.6111 5.94903 10.6111 6.11111C10.6111 7.55216 10.8415 8.93707 11.2684 10.2307C11.3359 10.4489 11.286 10.6847 11.1131 10.8576L8.66867 13.302Z" fill="#C01818" stroke="#C01818"/>
</svg>
