<svg width="75" height="76" viewBox="0 0 75 76" fill="none" xmlns="http://www.w3.org/2000/svg">
<path fill-rule="evenodd" clip-rule="evenodd" d="M69.4418 32.0241C68.7011 31.2835 67.5598 31.4044 66.897 32.0672L46.9859 51.9783C46.7209 52.2433 46.5366 52.5849 46.4671 52.9598L45.4775 58.2995C45.2508 59.5229 46.293 60.5652 47.5164 60.3384L52.8561 59.3488C53.231 59.2793 53.5726 59.095 53.8376 58.83L73.7487 38.919C74.4116 38.2561 74.5324 37.1148 73.7918 36.3741L69.4418 32.0241ZM66.3775 35.4152L68.1909 33.6017L72.2142 37.625L70.4008 39.4385L66.3775 35.4152ZM64.9632 36.8294L68.9865 40.8527L56.023 53.8162L51.9997 49.7929L64.9632 36.8294ZM50.5855 51.2071L54.6088 55.2304L52.449 57.3902L47.5105 58.3055L48.4258 53.3669L50.5855 51.2071Z" fill="#C01818"/>
<path d="M60.2534 33.5584V7.25C60.2534 3.93629 57.5671 1.25 54.2534 1.25H7.75342C4.43971 1.25 1.75342 3.93629 1.75342 7.25V68.75C1.75342 72.0637 4.43971 74.75 7.75342 74.75H54.2534C57.5671 74.75 60.2534 72.0637 60.2534 68.75V58.0786" stroke="#C01818" stroke-width="2"/>
<rect x="8.75342" y="14.4375" width="44.5" height="2" rx="1" fill="#C01818"/>
<rect x="8.75342" y="22.4375" width="44.5" height="2" rx="1" fill="#C01818"/>
<rect x="8.75342" y="30.4375" width="44.5" height="2" rx="1" fill="#C01818"/>
<rect x="8.75342" y="37.5625" width="44.5" height="2" rx="1" fill="#C01818"/>
<rect x="8.75342" y="45.5625" width="31.875" height="2" rx="1" fill="#C01818"/>
<rect x="8.75342" y="53.5625" width="24.875" height="2" rx="1" fill="#C01818"/>
<rect x="8.75342" y="61.5625" width="24.875" height="2" rx="1" fill="#C01818"/>
</svg>
