<svg width="21" height="20" viewBox="0 0 21 20" fill="none" xmlns="http://www.w3.org/2000/svg">
<path d="M9.70268 16.0026L10.1 16.5229L10.4974 16.0026C12.5919 13.2603 13.6602 11.4538 14.2039 10.2116C14.7585 8.94457 14.7667 8.26351 14.7667 7.80483C14.7667 6.59006 14.272 5.42762 13.3955 4.57252C12.5194 3.71782 11.3338 3.23979 10.1 3.23979C8.86629 3.23979 7.68066 3.71782 6.8046 4.57252C5.92811 5.42762 5.43337 6.59006 5.43337 7.80483C5.43337 8.26351 5.44162 8.94457 5.99615 10.2116C6.53983 11.4538 7.60816 13.2603 9.70268 16.0026ZM10.1 6.27231C10.5239 6.27231 10.928 6.43669 11.224 6.72551C11.5196 7.01392 11.6834 7.40242 11.6834 7.80483C11.6834 8.00434 11.6431 8.20221 11.5646 8.38724C11.486 8.57229 11.3705 8.74126 11.224 8.88414C11.0775 9.02706 10.903 9.14106 10.71 9.21905C10.5169 9.29705 10.3097 9.33735 10.1 9.33735C9.67618 9.33735 9.2721 9.17296 8.97606 8.88414C8.68044 8.59574 8.51671 8.20724 8.51671 7.80483C8.51671 7.40242 8.68044 7.01392 8.97606 6.72551C9.2721 6.43669 9.67618 6.27231 10.1 6.27231ZM10.1 2.61377C11.5185 2.61377 12.8764 3.16361 13.8757 4.13853C14.8745 5.11305 15.4334 6.43211 15.4334 7.80483C15.4334 8.76821 15.1012 9.88613 14.5675 11.0483C14.037 12.2036 13.325 13.3652 12.6055 14.4056C11.887 15.4445 11.1674 16.3535 10.6271 17.003C10.4219 17.2496 10.2429 17.4585 10.1 17.6224C9.95717 17.4585 9.77815 17.2496 9.57296 17.003C9.03265 16.3535 8.31311 15.4445 7.59461 14.4056C6.8751 13.3652 6.16308 12.2036 5.63255 11.0483C5.09889 9.88613 4.7667 8.76821 4.7667 7.80483C4.7667 6.43211 5.32553 5.11305 6.32441 4.13853C7.32371 3.16361 8.68162 2.61377 10.1 2.61377Z" fill="#C01818" stroke="#C01818"/>
</svg>
