<svg width="31" height="30" viewBox="0 0 31 30" fill="none" xmlns="http://www.w3.org/2000/svg">
<path d="M11.3501 5.37822H18.8501C22.0925 5.37822 24.7219 8.00764 24.7219 11.25V18.75C24.7219 21.9924 22.0925 24.6218 18.8501 24.6218H11.3501C8.10773 24.6218 5.47832 21.9924 5.47832 18.75V11.25C5.47832 8.00764 8.10773 5.37822 11.3501 5.37822ZM18.8501 23.5032C21.4715 23.5032 23.6033 21.3714 23.6033 18.75V11.25C23.6033 8.62861 21.4715 6.49678 18.8501 6.49678H11.3501C8.72871 6.49678 6.59688 8.62861 6.59688 11.25V18.75C6.59688 21.3714 8.72871 23.5032 11.3501 23.5032H18.8501Z" fill="#C01818" stroke="#C01818" stroke-width="0.756445"/>
<path d="M10.4782 15C10.4782 12.4476 12.5476 10.3782 15.1 10.3782C17.6524 10.3782 19.7218 12.4476 19.7218 15C19.7218 17.5524 17.6524 19.6218 15.1 19.6218C12.5476 19.6218 10.4782 17.5524 10.4782 15ZM11.5968 15C11.5968 16.9314 13.1686 18.5032 15.1 18.5032C17.0314 18.5032 18.6032 16.9314 18.6032 15C18.6032 13.0673 17.0313 11.4968 15.1 11.4968C13.1687 11.4968 11.5968 13.0673 11.5968 15Z" fill="#C01818" stroke="#C01818" stroke-width="0.756445"/>
<path d="M20.7631 9.62523C20.7631 9.78431 20.6342 9.91326 20.4751 9.91326C20.316 9.91326 20.1871 9.78431 20.1871 9.62523C20.1871 9.46616 20.316 9.33721 20.4751 9.33721C20.6342 9.33721 20.7631 9.46616 20.7631 9.62523Z" fill="#C01818" stroke="#C01818" stroke-width="0.756445"/>
</svg>
