<svg width="23" height="23" viewBox="0 0 23 23" fill="none" xmlns="http://www.w3.org/2000/svg">
<path d="M14.7693 13.8385L14.4703 14.1898L14.7965 14.5161L15.134 14.8536L15.2805 15H15.4876H16.268L22.018 20.75L20.8501 21.9179L15.1001 16.1679V15.3875V15.1804L14.9537 15.0339L14.6162 14.6964L14.2899 14.3702L13.9386 14.6692C12.5998 15.8083 10.8635 16.5 8.9751 16.5C6.95282 16.5 5.01337 15.6967 3.58341 14.2667C2.15344 12.8367 1.3501 10.8973 1.3501 8.875C1.3501 6.85272 2.15344 4.91328 3.58341 3.48331C5.01337 2.05335 6.95282 1.25 8.9751 1.25C10.9974 1.25 12.9368 2.05335 14.3668 3.48331C15.7968 4.91328 16.6001 6.85272 16.6001 8.875C16.6001 10.7634 15.9084 12.4997 14.7693 13.8385ZM8.9751 2.75C5.57396 2.75 2.8501 5.47386 2.8501 8.875C2.8501 12.2761 5.57396 15 8.9751 15C12.3762 15 15.1001 12.2761 15.1001 8.875C15.1001 5.47386 12.3762 2.75 8.9751 2.75Z" fill="#C01818" stroke="#C01818"/>
</svg>
