<svg width="61" height="61" viewBox="0 0 61 61" fill="none" xmlns="http://www.w3.org/2000/svg">
<path fill-rule="evenodd" clip-rule="evenodd" d="M30.418 58.2C45.8819 58.2 58.418 45.6639 58.418 30.2C58.418 14.736 45.8819 2.19995 30.418 2.19995C14.954 2.19995 2.41797 14.736 2.41797 30.2C2.41797 45.6639 14.954 58.2 30.418 58.2ZM30.418 60.2C46.9865 60.2 60.418 46.7685 60.418 30.2C60.418 13.6314 46.9865 0.199951 30.418 0.199951C13.8494 0.199951 0.417969 13.6314 0.417969 30.2C0.417969 46.7685 13.8494 60.2 30.418 60.2Z" fill="#C01818"/>
<path d="M29.418 9.19995C29.418 8.64767 29.8657 8.19995 30.418 8.19995C30.9703 8.19995 31.418 8.64767 31.418 9.19995V31.2C31.418 31.7522 30.9703 32.2 30.418 32.2C29.8657 32.2 29.418 31.7522 29.418 31.2V9.19995Z" fill="#C01818"/>
<path d="M46.418 30.2C46.9703 30.2 47.418 30.6477 47.418 31.2C47.418 31.7522 46.9703 32.2 46.418 32.2H30.418C29.8657 32.2 29.418 31.7522 29.418 31.2C29.418 30.6477 29.8657 30.2 30.418 30.2H46.418Z" fill="#C01818"/>
</svg>
