<svg width="72" height="65" viewBox="0 0 72 65" fill="none" xmlns="http://www.w3.org/2000/svg">
<path fill-rule="evenodd" clip-rule="evenodd" d="M11.1855 35.2H3.18555C1.52869 35.2 0.185547 36.5431 0.185547 38.2V61.2C0.185547 62.8568 1.52869 64.2 3.18555 64.2H11.1855C12.645 64.2 13.861 63.1579 14.1301 61.7772L35.3249 64.9339C36.6567 65.1322 38.0166 64.8768 39.1856 64.2088L68.8663 47.2484C71.4145 45.7923 72.1098 42.4323 70.3489 40.0844C68.9789 38.2578 66.5253 37.6255 64.4431 38.5625L47.2752 46.288C46.7715 46.5147 46.547 47.1067 46.7736 47.6103C47.0003 48.114 47.5923 48.3385 48.0959 48.1119L65.2639 40.3863C66.4926 39.8334 67.9405 40.2065 68.7489 41.2844C69.788 42.6699 69.3777 44.6527 67.874 45.512L38.1934 62.4723C37.414 62.9177 36.5074 63.0879 35.6196 62.9557L14.1855 59.7634V39.2H23.0862C23.4047 39.2 23.7221 39.238 24.0316 39.3133L39.4258 43.0578C40.4586 43.309 41.1855 44.234 41.1855 45.2969C41.1855 46.5962 40.1121 47.6385 38.8134 47.6003L25.2149 47.2004C24.6629 47.1841 24.2022 47.6185 24.186 48.1706C24.1697 48.7226 24.6041 49.1833 25.1561 49.1995L38.7546 49.5995C41.1804 49.6708 43.1855 47.7238 43.1855 45.2969C43.1855 43.3116 41.8276 41.5837 39.8985 41.1145L24.5043 37.3699C24.04 37.257 23.564 37.2 23.0862 37.2H14.0148C13.603 36.0348 12.4918 35.2 11.1855 35.2ZM2.18555 38.2C2.18555 37.6477 2.63326 37.2 3.18555 37.2H11.1855C11.7378 37.2 12.1855 37.6477 12.1855 38.2V61.2C12.1855 61.7522 11.7378 62.2 11.1855 62.2H3.18555C2.63326 62.2 2.18555 61.7522 2.18555 61.2V38.2Z" fill="#C01818"/>
<path d="M36.5325 11.1399L36.3583 15.278L40.7162 15.4614L42.9819 13.492L45.0741 15.6448L47.3398 13.6754L49.1207 15.8152L50.6771 15.8807L54.5425 12.9462L50.9373 9.69735L36.6186 9.09464L36.5325 11.1399ZM36.5325 11.1399L36.7488 6.00297C36.7775 5.31998 36.2234 4.742 35.5112 4.71203L23.9051 4.22349C23.1929 4.19352 22.5922 4.72289 22.5634 5.40588L22.3032 11.5892L22.0429 17.7725C22.0142 18.4555 22.5682 19.0335 23.2804 19.0635L34.1191 19.5197M36.5325 11.1399L37.2332 11.5445C37.8506 11.9009 38.0739 12.6698 37.7321 13.2618L36.3419 15.6698M36.5325 11.1399L36.3419 15.6698M34.1191 19.5197L33.0905 21.3013L36.8679 23.4821L39.7881 22.786L40.6453 25.663L43.5654 24.9669L44.1528 27.6881L45.5019 28.467L50.2868 27.6564L48.5963 23.1073L36.327 16.0236M34.1191 19.5197L34.8866 19.552C35.5988 19.582 36.1995 19.0526 36.2282 18.3696L36.327 16.0236M34.1191 19.5197L31.5433 23.9811C31.2015 24.5731 30.424 24.7641 29.8067 24.4077L19.7465 18.5995C19.1292 18.243 18.9058 17.4742 19.2476 16.8822L22.342 11.5225M36.3419 15.6698L36.327 16.0236M26.1098 9.27173C26.1242 8.93023 26.4246 8.66555 26.7807 8.68054L28.0702 8.73482C28.4263 8.74981 28.7034 9.0388 28.689 9.38029L28.5972 11.5608L28.5199 13.3966L28.4547 14.9453C28.4404 15.2868 28.14 15.5515 27.7839 15.5365L26.4944 15.4822C26.1383 15.4672 25.8612 15.1782 25.8756 14.8367L25.9674 12.6548L26.1098 9.27173Z" stroke="#C01818" stroke-width="2" stroke-linecap="round" stroke-linejoin="round"/>
</svg>
