<svg width="76" height="77" viewBox="0 0 76 77" fill="none" xmlns="http://www.w3.org/2000/svg">
<path d="M21.8465 26.4751C25.4848 21.5009 31.3651 18.27 38 18.27C43.3738 18.27 48.2526 20.3894 51.8462 23.8379M19.138 31.6034C18.401 33.6885 18 35.9325 18 38.27C18 49.3157 26.9543 58.27 38 58.27C49.0457 58.27 58 49.3157 58 38.27C58 34.5208 56.9684 31.0125 55.1735 28.0136" stroke="#C01818" stroke-width="2" stroke-linecap="round" stroke-linejoin="round"/>
<circle cx="38" cy="38.27" r="27" stroke="#C01818" stroke-width="2"/>
<rect width="2" height="4" rx="1" transform="matrix(-0.707107 0.707107 0.707107 0.707107 14.373 13.2284)" fill="#C01818"/>
<rect width="2" height="4" rx="1" transform="matrix(-0.707107 0.707107 0.707107 0.707107 60.2129 59.069)" fill="#C01818"/>
<rect width="2" height="4" rx="1" transform="matrix(-0.707107 -0.707107 -0.707107 0.707107 63.042 14.6427)" fill="#C01818"/>
<rect width="2" height="4" rx="1" transform="matrix(-0.707107 -0.707107 -0.707107 0.707107 17.2012 60.4833)" fill="#C01818"/>
<rect x="68" y="39.27" width="2" height="8" rx="1" transform="rotate(-90 68 39.27)" fill="#C01818"/>
<rect y="39.27" width="2" height="8" rx="1" transform="rotate(-90 0 39.27)" fill="#C01818"/>
<rect x="37" y="68.27" width="2" height="8" rx="1" fill="#C01818"/>
<rect x="37" y="0.27002" width="2" height="8" rx="1" fill="#C01818"/>
<path d="M49.5858 30.8558C48.8047 30.0748 47.5384 30.0748 46.7574 30.8558L35.0858 42.5274L30.4142 37.8558C29.6332 37.0748 28.3668 37.0748 27.5858 37.8558C26.8047 38.6369 26.8047 39.9032 27.5858 40.6842L33.6532 46.7516C34.2739 47.3723 35.1989 47.4986 35.9439 47.1354C36.165 47.0378 36.3713 46.8987 36.5503 46.7197L49.5858 33.6842C50.3668 32.9032 50.3668 31.6369 49.5858 30.8558Z" stroke="#C01818" stroke-width="2"/>
</svg>
