<svg width="217" height="215" viewBox="0 0 217 215" fill="none" xmlns="http://www.w3.org/2000/svg">
<g clip-path="url(#clip0)">
<path d="M215.446 95.4278V9.00155C215.446 4.6109 211.879 1.05157 207.478 1.05157L120.859 1.05157C116.459 1.05157 112.891 4.6109 112.891 9.00155V95.4278C112.891 99.8184 116.459 103.378 120.859 103.378H207.478C211.879 103.378 215.446 99.8184 215.446 95.4278Z" fill="#C01818"/>
<path d="M165.314 44.0193H165.005V45.4215H165.314" fill="white"/>
<path d="M148.753 59.7648L165.033 59.723C159.489 59.6951 154.03 59.7229 148.753 59.7648Z" fill="white"/>
<path d="M146.947 61.2093H148.845H146.484C146.645 61.2093 146.786 61.2163 146.947 61.2093Z" fill="white"/>
<path d="M165.616 59.6949H165.005V61.097H165.314" fill="white"/>
<path d="M148.845 61.1949L165.005 61.1531C159.531 61.1322 154.114 61.1531 148.845 61.1949Z" fill="white"/>
<path d="M164.639 44.0193H164.913V45.4215H164.611" fill="white"/>
<path d="M181.228 59.7648L164.913 59.723C170.464 59.6951 175.924 59.7229 181.228 59.7648Z" fill="white"/>
<path d="M183.006 61.2093H181.102H183.47C183.322 61.2093 183.182 61.2163 183.006 61.2093Z" fill="white"/>
<path d="M164.33 59.6949H164.913V61.097H164.611" fill="white"/>
<path d="M189.793 78.0066C189.761 76.0717 189.721 74.1438 189.674 72.2229C189.632 70.6011 189.597 68.9816 189.568 67.3645C189.568 66.4672 189.568 65.1212 188.402 65.1212C187.123 65.1212 185.838 65.1212 184.552 65.1212C183.266 65.1212 181.973 65.1212 180.694 65.1212C179.591 65.1212 179.563 66.4742 179.549 67.3645C179.549 68.991 179.486 70.6245 179.444 72.2719L164.998 72.3491L150.545 72.2719L150.439 67.3645C150.439 66.4742 150.397 65.1212 149.294 65.1212C148.008 65.1212 146.723 65.1212 145.437 65.1212C144.151 65.1212 142.865 65.1212 141.579 65.1212C140.434 65.1212 140.434 66.4672 140.413 67.3645C140.385 68.9863 140.352 70.6058 140.315 72.2229C140.273 74.1438 140.233 76.0717 140.195 78.0066C140.16 79.8293 140.315 80.6706 140.764 81.1123C140.87 81.2153 140.995 81.2953 141.133 81.3472C141.271 81.3991 141.418 81.4217 141.565 81.4137C142.823 81.3646 144.123 81.3366 145.437 81.3366C146.751 81.3366 148.051 81.3366 149.308 81.4137H149.35C149.633 81.4153 149.905 81.3072 150.109 81.1123C150.559 80.6706 150.713 79.8293 150.678 78.0066C150.678 76.5624 150.622 75.1252 150.587 73.6811L164.977 73.7582H165.04L179.43 73.6811C179.43 75.1252 179.366 76.5624 179.338 78.0066C179.338 79.8293 179.465 80.6706 179.914 81.1123C180.116 81.3067 180.386 81.4149 180.666 81.4137H180.715C181.966 81.3646 183.266 81.3296 184.58 81.3366C185.894 81.3436 187.201 81.3366 188.451 81.4137C188.599 81.4222 188.746 81.3997 188.884 81.3478C189.022 81.2959 189.147 81.2156 189.252 81.1123C189.667 80.6706 189.821 79.8293 189.793 78.0066ZM149.097 79.9766C147.917 79.9345 146.702 79.9065 145.472 79.9065H145.402C144.158 79.9065 142.907 79.9064 141.706 79.9766C141.586 79.3343 141.548 78.6794 141.593 78.0276C141.629 76.0997 141.671 74.1788 141.713 72.2509C141.75 70.6291 141.783 69.0097 141.811 67.3926C141.811 66.9719 141.811 66.6915 141.867 66.5583H148.936C148.968 66.8353 148.984 67.1138 148.985 67.3926L149.09 72.3C149.133 74.2139 149.175 76.1348 149.21 78.0486C149.249 78.6935 149.212 79.3407 149.097 79.9766ZM188.248 79.9766C187.039 79.9275 185.788 79.9135 184.545 79.9065H184.481C183.252 79.9065 182.029 79.9064 180.849 79.9766C180.733 79.3338 180.695 78.6794 180.736 78.0276C180.772 76.1137 180.814 74.1928 180.856 72.2789C180.891 70.6525 180.933 69.026 180.961 67.3715C180.962 67.0928 180.978 66.8142 181.011 66.5373H188.1C188.132 66.8142 188.148 67.0928 188.149 67.3715C188.177 68.9933 188.212 70.6128 188.255 72.2299C188.297 74.1578 188.339 76.0787 188.374 78.0066C188.412 78.6659 188.37 79.3275 188.248 79.9766Z" fill="white"/>
<path d="M182.1 39.2592V38.5581H169.375L167.97 20.6952H162.026L160.621 38.5581H159.293L159.117 33.0758L149.695 32.0874V38.5581H147.847V39.2592L147.608 42.2387L149.013 42.3508L149.196 40.0023H180.723L180.912 42.3508L182.317 42.2387L182.1 39.2592ZM151.128 38.5581V33.6507L157.726 34.3518L157.859 38.5581H151.128ZM165.005 38.5581H162.012L163.319 22.2095H166.628L167.935 38.5581H165.005Z" fill="white"/>
<path d="M181.074 61.1949L164.913 61.1531C170.422 61.1322 175.839 61.1531 181.074 61.1949Z" fill="white"/>
<path d="M186.386 54.3319C186.294 53.3644 186.203 52.397 186.105 51.4505C185.943 49.761 185.767 48.0154 185.627 46.3048C185.451 44.2787 184.06 44.0123 182.858 44.0123C176.9 44.0123 170.944 44.0123 164.991 44.0123C159.037 44.0123 153.081 44.0123 147.123 44.0123C145.922 44.0123 144.53 44.2787 144.362 46.3048C144.214 48.0154 144.046 49.761 143.877 51.4505C143.786 52.397 143.687 53.3644 143.596 54.3319L142.893 61.013V61.2092H148.894C154.149 61.1672 159.56 61.1462 165.054 61.1462C170.549 61.1462 175.924 61.1462 181.214 61.2092H187.215V60.9919L186.386 54.3319ZM183.428 59.7721H183.02H181.228L165.005 59.73H164.913L148.753 59.7651H146.962H146.554C146.012 59.8045 145.476 59.6337 145.057 59.2884C144.901 59.0577 144.791 58.7982 144.736 58.525C144.68 58.2518 144.68 57.9704 144.734 57.697C144.896 55.6569 145.1 53.5818 145.296 51.5837C145.465 49.8872 145.641 48.1416 145.781 46.417C145.844 45.6458 146.02 45.4355 147.116 45.4355C153.07 45.4355 159.016 45.4355 164.956 45.4355H165.019C170.963 45.4355 176.91 45.4355 182.858 45.4355C183.948 45.4355 184.123 45.6458 184.186 46.417C184.334 48.1416 184.51 49.9222 184.671 51.5837C184.868 53.5818 185.072 55.6569 185.233 57.697C185.291 57.9702 185.292 58.2523 185.237 58.526C185.181 58.7997 185.07 59.0591 184.91 59.2884C184.496 59.6328 183.966 59.8059 183.428 59.7721Z" fill="white"/>
<path d="M178.263 63.004H176.858V65.1071H153.131V63.004H151.725L151.62 66.6004L152.695 68.1217C153.313 68.8227 153.953 69.4817 154.803 69.5238C158.189 69.5939 161.569 69.6313 164.942 69.636H165.005C168.377 69.636 171.764 69.5939 175.144 69.5238C175.98 69.5238 176.619 68.8227 177.252 68.1217L178.32 66.6004L178.263 63.004ZM176.155 67.1402C175.839 67.4767 175.305 68.0516 175.08 68.0586C171.694 68.1287 168.307 68.1707 164.942 68.1778C161.576 68.1848 158.182 68.1287 154.803 68.0586C154.571 68.0586 154.044 67.4767 153.721 67.1402C153.58 66.986 153.44 66.8317 153.292 66.6915L153.327 66.5864H176.549V66.6915C176.472 66.8317 176.331 66.986 176.191 67.1402H176.155Z" fill="white"/>
<path d="M104.109 95.4278V9.00156C104.109 4.6109 100.541 1.05157 96.1409 1.05157L9.52167 1.05157C5.12121 1.05157 1.55392 4.6109 1.55392 9.00156V95.4278C1.55392 99.8185 5.12121 103.378 9.52167 103.378H96.1409C100.541 103.378 104.109 99.8185 104.109 95.4278Z" stroke="#1D1D1D" stroke-width="3" stroke-miterlimit="10"/>
<path d="M215.446 205.998V119.572C215.446 115.182 211.879 111.622 207.478 111.622H120.859C116.459 111.622 112.891 115.182 112.891 119.572V205.998C112.891 210.389 116.459 213.948 120.859 213.948H207.478C211.879 213.948 215.446 210.389 215.446 205.998Z" stroke="#1D1D1D" stroke-width="3" stroke-miterlimit="10"/>
<path d="M138.565 142.7L129.782 144.418V158.642H138.565V142.7ZM137.16 157.24H131.258V145.616L137.16 144.446V157.24Z" fill="#1D1D1B"/>
<path d="M150.194 173.862H139.317V182.744H153.482L150.194 173.862ZM140.75 175.264H149.182L151.416 181.286H140.736L140.75 175.264Z" fill="#1D1D1B"/>
<path d="M151.732 193.695C151.774 194.565 151.717 195.438 151.564 196.296C150.088 196.24 148.563 196.219 147.018 196.212C145.472 196.205 143.947 196.212 142.472 196.296C142.324 195.44 142.272 194.57 142.317 193.702C142.317 193.001 142.317 192.265 142.366 191.543H140.961C140.961 192.244 140.961 192.945 140.912 193.646C140.912 195.504 141.045 196.892 141.53 197.361C141.639 197.47 141.768 197.556 141.91 197.614C142.053 197.672 142.206 197.7 142.359 197.698H142.401C143.905 197.642 145.472 197.614 147.046 197.614C148.62 197.614 150.187 197.614 151.69 197.698C151.852 197.706 152.014 197.68 152.165 197.622C152.316 197.564 152.453 197.475 152.568 197.361C153.046 196.892 153.222 195.504 153.18 193.646L153.138 191.543H151.732V193.695Z" fill="#1D1D1B"/>
<path d="M151.69 191.507H153.095V191.444L151.69 191.507Z" fill="#1D1D1B"/>
<path d="M142.38 191.507L140.975 191.473V191.535H142.38V191.507Z" fill="#1D1D1B"/>
<path d="M182.17 136.937H140.518V157.892C140.512 159.23 140.971 160.528 141.818 161.565V161.944H142.156C142.594 162.387 143.116 162.739 143.691 162.979C144.266 163.22 144.883 163.345 145.507 163.346H182.17C182.792 163.344 183.409 163.22 183.983 162.979C184.557 162.738 185.077 162.387 185.514 161.944H185.859V161.565C186.706 160.528 187.165 159.23 187.158 157.892V136.937H182.17ZM185.859 142.42V157.892C185.903 158.916 185.54 159.916 184.849 160.675C184.159 161.433 183.196 161.89 182.17 161.944H145.507C144.481 161.891 143.517 161.436 142.826 160.677C142.135 159.917 141.772 158.916 141.818 157.892V138.739C141.924 138.613 142.036 138.487 142.156 138.367H185.514C185.634 138.487 185.746 138.613 185.859 138.739V142.42Z" fill="#1D1D1B"/>
<path d="M187.426 133.86L183.547 130.481H164.021H163.656H144.123L140.251 133.86H136.816V141.347H138.249V135.297H140.785L144.664 131.911H163.656H164.021H183.013L186.885 135.297H189.428V141.347H190.861V133.86H187.426Z" fill="#1D1D1B"/>
<path d="M189.112 158.67H197.881V144.418L189.112 142.672V158.67ZM190.517 144.446L196.419 145.616V157.24H190.517V144.446Z" fill="#1D1D1B"/>
<path d="M174.188 182.751H188.36V173.862H177.483L174.188 182.751ZM186.927 181.349H176.247L178.481 175.327H186.913L186.927 181.349Z" fill="#1D1D1B"/>
<path d="M190.791 159.946L189.372 160.149L189.583 161.615L186.884 163.557V170.967H175.488L171.385 181.321H164.021H163.656H156.292L152.189 170.967H140.792V163.557L138.094 161.615L138.305 160.149L136.886 159.946L136.549 162.267L139.359 164.286V172.397H151.212L155.316 182.751H163.656H164.021H172.354L176.465 172.397H188.318V164.286L191.128 162.267L190.791 159.946Z" fill="#1D1D1B"/>
<path d="M175.938 193.695C175.896 194.563 175.948 195.432 176.092 196.289C177.568 196.233 179.092 196.212 180.638 196.205C182.184 196.198 183.716 196.205 185.191 196.289C185.339 195.433 185.391 194.563 185.346 193.695C185.346 192.994 185.311 192.258 185.297 191.536H186.702C186.702 192.237 186.737 192.938 186.751 193.639C186.786 195.497 186.61 196.885 186.133 197.354C186.024 197.463 185.895 197.549 185.752 197.607C185.61 197.665 185.457 197.693 185.304 197.691H185.289C183.786 197.635 182.226 197.607 180.645 197.607C179.064 197.607 177.511 197.607 176.008 197.691C175.846 197.699 175.684 197.673 175.533 197.615C175.382 197.557 175.245 197.468 175.13 197.354C174.652 196.885 174.476 195.497 174.511 193.639C174.511 192.938 174.511 192.237 174.56 191.536H175.966C175.973 192.258 175.952 192.973 175.938 193.695Z" fill="#1D1D1B"/>
<path d="M186.927 184.069V190.106H140.75V184.069H139.345V191.536H140.975V191.473L142.38 191.508H151.69L153.095 191.473V191.536H174.525V191.473L175.931 191.508H185.29L186.695 191.473V191.536H188.325V184.069H186.927Z" fill="#1D1D1B"/>
<path d="M175.987 191.507H174.582V191.444L175.987 191.507Z" fill="#1D1D1B"/>
<path d="M185.29 191.507L186.695 191.473V191.535H185.29V191.507Z" fill="#1D1D1B"/>
<path d="M38.7156 62.7586L52.4378 66.6705V65.1842L40.149 61.679V54.4861H52.4378V53.056H38.7156V62.7586Z" fill="#1D1D1B"/>
<path d="M31.5629 40.8155C31.7105 38.9086 31.9002 36.9737 32.0829 35.1019C32.2515 33.4123 32.4272 31.6667 32.5677 29.9421C32.6379 29.171 32.8066 28.9606 33.9027 28.9606C39.8515 28.9606 45.798 28.9606 51.7422 28.9606H52.4449V27.5585H51.7914C45.8332 27.5585 39.8773 27.5585 33.9237 27.5585C32.7223 27.5585 31.3311 27.8249 31.1624 29.844C31.0149 31.5616 30.8463 33.3072 30.6776 34.9897C30.5863 35.9432 30.4949 36.9106 30.4036 37.8781L30.1507 40.2967H28.7454V35.3893H21.4944V38.8946L24.8529 41.6988H29.9188L31.6121 42.3999L33.9589 43.3253L39.2918 45.4284H52.4378V44.0263H39.5658L37.8092 43.3253L31.9986 41.0328L31.5629 40.8646V40.8155ZM27.298 40.3177H25.3728L22.9277 38.2076V36.8055H27.298V40.3177Z" fill="#1D1D1B"/>
<path d="M36.6921 52.9858L21.4944 47.7279V57.052L36.6921 62.1276V52.9858ZM35.2868 60.1436L22.9277 56.0214V49.775L35.2587 53.9813L35.2868 60.1436Z" fill="#1D1D1B"/>
<path d="M52.4518 75.7421H52.4378V75.8188L52.4518 75.7421Z" fill="#1D1D1B"/>
<path d="M22.9277 69.4046V64.8407H21.5224V70.5613L24.4805 71.1993C24.4805 72.314 24.4805 74.6345 24.4453 75.2374C24.4453 77.1022 24.5788 78.4832 25.0636 78.96C25.1718 79.0672 25.3 79.1522 25.4411 79.2099C25.5821 79.2677 25.7332 79.2971 25.8857 79.2965H25.9349C27.4385 79.2404 29.0054 79.2123 30.5792 79.2123C32.1531 79.2123 33.7199 79.2124 35.2236 79.2965C35.3842 79.3033 35.5445 79.277 35.6944 79.2191C35.8444 79.1612 35.9807 79.0729 36.0948 78.96C36.5796 78.4832 36.7482 77.1022 36.7131 75.2374C36.7131 74.7677 36.7131 74.2909 36.7131 73.8352L52.494 77.3405V75.7141L22.9277 69.4046ZM35.0971 77.8593C33.6216 77.8102 32.0969 77.7892 30.5511 77.7822C29.0054 77.7752 27.4807 77.7822 26.0052 77.8593C25.8563 77.0032 25.8045 76.1331 25.8506 75.2654C25.8506 74.7046 25.8506 72.6995 25.8857 71.5007L35.2165 73.5058C35.2165 74.0946 35.2165 74.6835 35.2517 75.2654C35.2978 76.1331 35.2459 77.0032 35.0971 77.8593Z" fill="#1D1D1B"/>
<path d="M68.317 62.1276L83.5078 57.052V47.7279L68.317 52.9858V62.1276ZM69.7223 54.0024L82.0744 49.775V56.0845L69.7504 60.1436L69.7223 54.0024Z" fill="#1D1D1B"/>
<path d="M52.5572 75.7421H52.5712V75.8188L52.5572 75.7421Z" fill="#1D1D1B"/>
<path d="M66.2935 53.056H38.8913V62.7586L52.5432 66.6495H52.6135L66.2654 62.7586L66.2935 53.056ZM64.8602 61.693L52.6064 65.1983L40.3527 61.693V54.4861H64.8602V61.693Z" fill="#1D1D1B"/>
<path d="M31.7526 40.8085V40.9838C31.7491 40.9278 31.7491 40.8716 31.7526 40.8155V40.8085Z" fill="#1D1D1B"/>
<path d="M76.2778 35.3754V40.2828H74.8725L74.6266 37.8571C74.5353 36.8896 74.4439 35.9222 74.3526 34.9687C74.184 33.2862 74.0083 31.5406 73.8678 29.823C73.6992 27.8039 72.308 27.5375 71.1065 27.5375C65.1482 27.5375 59.1924 27.5375 53.2388 27.5375H51.9952C46.0416 27.5375 40.0857 27.5375 34.1275 27.5375C32.926 27.5375 31.5348 27.8039 31.3662 29.823C31.2186 31.5406 31.043 33.2862 30.8814 34.9687C30.783 35.9222 30.6917 36.8896 30.6003 37.8571L30.3474 40.2758H28.9421V35.3684H21.7051V38.8736L25.0566 41.6779H30.1225L31.8229 42.3789L34.1696 43.3043L39.5025 45.4075H65.7174L71.0503 43.3043L73.397 42.3789L75.0903 41.6779H80.1562L83.5078 38.8736V35.3684L76.2778 35.3754ZM27.5018 40.2828H25.5836L23.1385 38.2076V36.8055H27.5018V40.2828ZM73.0036 40.9838L67.1999 43.2763L65.4433 43.9773H39.7766L38.02 43.2763L32.2093 40.9838L31.7667 40.8156C31.9213 38.9087 32.111 36.9738 32.2936 35.1019C32.4623 33.4124 32.6309 31.6668 32.7785 29.9422C32.8417 29.171 33.0174 28.9607 34.1064 28.9607C40.0506 28.9607 45.9971 28.9607 51.946 28.9607H53.2318C59.176 28.9607 65.1201 28.9607 71.0643 28.9607C72.1604 28.9607 72.329 29.171 72.3993 29.9422C72.5398 31.6668 72.7155 33.4124 72.8771 35.1019C73.0668 36.9738 73.2495 38.9087 73.4041 40.8156L73.0036 40.9838ZM82.0744 38.1796L79.6293 40.2407H77.7111V36.8055H82.0744V38.1796Z" fill="#1D1D1B"/>
<path d="M52.6556 75.7421H52.6416V75.8188L52.6556 75.7421Z" fill="#1D1D1B"/>
<path d="M83.5077 64.8407H82.1025V69.4046L52.6345 75.7141L23.1385 69.4046V64.8407H21.7332V70.5613L24.6913 71.1993C24.6913 72.314 24.6913 74.6345 24.6491 75.2374C24.6491 77.1022 24.7896 78.4833 25.2674 78.96C25.4884 79.1771 25.7864 79.298 26.0965 79.2965H26.1457C27.6493 79.2404 29.2091 79.2124 30.79 79.2124C32.3709 79.2124 33.9237 79.2124 35.4273 79.2965C35.589 79.3031 35.7502 79.2766 35.9013 79.2187C36.0523 79.1609 36.1899 79.0728 36.3056 78.96C36.7834 78.4833 36.959 77.1022 36.9239 75.2374C36.9239 74.7677 36.9239 74.291 36.9239 73.8353L52.6345 77.3406H52.7048L68.4154 73.8353C68.4154 74.312 68.4154 74.7887 68.4154 75.2374C68.3732 77.1022 68.5489 78.4833 69.0267 78.96C69.1424 79.0728 69.28 79.1609 69.431 79.2187C69.582 79.2766 69.7433 79.3031 69.905 79.2965C71.4086 79.2404 72.9824 79.2054 74.5493 79.2124C76.1161 79.2194 77.69 79.2124 79.1936 79.2965H79.2428C79.5504 79.2962 79.8456 79.1754 80.0649 78.96C80.5497 78.4833 80.7183 77.1022 80.6832 75.2374C80.6832 74.6345 80.6832 72.314 80.641 71.1993L83.5991 70.5613L83.5077 64.8407ZM35.3079 77.8593C33.8324 77.8103 32.3077 77.7892 30.7619 77.7822C29.2161 77.7752 27.6844 77.7822 26.2089 77.8593C26.0601 77.0032 26.0082 76.1331 26.0543 75.2654C26.0543 74.7046 26.0543 72.6996 26.0895 71.5007L35.4203 73.5058L35.4624 75.2654C35.5045 76.1331 35.4527 77.0028 35.3079 77.8593ZM79.0039 77.8593C77.5284 77.8103 76.0037 77.7752 74.4579 77.7822C72.9122 77.7892 71.3875 77.7822 69.912 77.8593C69.7632 77.0032 69.7113 76.1331 69.7574 75.2654C69.7574 74.6835 69.7574 74.0947 69.7925 73.5058L79.1234 71.5078C79.1234 72.7066 79.1234 74.7116 79.1234 75.2724C79.1805 76.1365 79.1405 77.0042 79.0039 77.8593Z" fill="#1D1D1B"/>
<path d="M104.109 205.998V119.572C104.109 115.182 100.541 111.622 96.1409 111.622H9.52167C5.12121 111.622 1.55393 115.182 1.55393 119.572V205.998C1.55393 210.389 5.12121 213.948 9.52167 213.948H96.1409C100.541 213.948 104.109 210.389 104.109 205.998Z" fill="#C01818"/>
<path d="M40.5003 192.089C40.5003 192.524 40.5003 192.966 40.5003 193.407C40.5003 193.849 40.5003 194.487 40.5003 195.027C40.5003 195.111 40.5003 195.188 40.5003 195.244C40.2262 195.244 39.9452 195.244 39.6711 195.244V192.089H39.7625H40.5003Z" fill="white"/>
<path d="M41.0974 191.031H40.0295H39.636H38.561C38.4386 191.026 38.3168 191.049 38.2048 191.099C38.0927 191.148 37.9934 191.222 37.9142 191.315C37.835 191.408 37.7781 191.518 37.7477 191.637C37.7173 191.755 37.7143 191.879 37.7389 191.998C37.7389 192.461 37.7389 192.924 37.7389 193.4C37.7389 193.877 37.7389 194.48 37.7389 195.02C37.7389 195.56 37.8162 195.924 38.1324 196.135C38.2972 196.242 38.4905 196.298 38.6875 196.296H38.7507L39.8187 196.261L40.8796 196.296H40.9429C41.1419 196.297 41.3371 196.241 41.505 196.135C41.8211 195.924 41.8844 195.581 41.8914 195.02C41.8984 194.459 41.8914 193.94 41.8914 193.4V191.998C41.9546 191.739 41.9546 191.045 41.0974 191.031ZM40.4862 193.386C40.4862 193.926 40.4862 194.466 40.4862 195.006C40.4862 195.09 40.4862 195.167 40.4862 195.223H40.0505H39.636H39.1933C39.1933 195.167 39.1933 195.09 39.1933 195.006C39.1933 194.466 39.1933 193.926 39.1933 193.386C39.1933 192.847 39.1933 192.503 39.1933 192.068H39.896H40.5986C40.5002 192.503 40.4932 192.945 40.4862 193.386Z" fill="white"/>
<path d="M45.0955 192.089C45.0955 192.531 45.0955 192.966 45.0955 193.407V195.027C45.0996 195.099 45.0996 195.172 45.0955 195.244H44.2664V192.096H44.3647L45.0955 192.089Z" fill="white"/>
<path d="M66.7432 192.089C66.7432 192.524 66.7432 192.966 66.7432 193.407V195.027C66.7392 195.099 66.7392 195.172 66.7432 195.244C67.0172 195.244 67.2983 195.244 67.5723 195.244V192.089H67.4739H66.7432Z" fill="white"/>
<path d="M65.3098 191.998C65.3098 192.461 65.3098 192.924 65.3098 193.4V195.02C65.3098 195.581 65.3801 195.924 65.6963 196.135C65.8633 196.243 66.0591 196.299 66.2584 196.296H66.3216L67.3826 196.261L68.4435 196.296H68.5067C68.7061 196.299 68.9018 196.243 69.0688 196.135C69.385 195.924 69.4483 195.581 69.4623 195.02C69.4764 194.459 69.4623 193.94 69.4623 193.4C69.4623 192.861 69.4623 192.468 69.4623 191.998C69.4874 191.877 69.4841 191.751 69.4526 191.631C69.4211 191.511 69.3623 191.4 69.2807 191.306C69.1991 191.213 69.097 191.139 68.9822 191.091C68.8675 191.044 68.7432 191.023 68.6192 191.031H67.5512H67.2491H66.1811C65.3028 191.045 65.3098 191.739 65.3098 191.998ZM66.7151 192.068H67.4177H68.1203C68.1203 192.503 68.1203 192.945 68.1203 193.386C68.1203 193.828 68.1203 194.466 68.1203 195.006C68.1203 195.09 68.1203 195.167 68.1203 195.223H67.6847H67.2491H66.8134C66.8094 195.151 66.8094 195.078 66.8134 195.006V193.386C66.7572 192.945 66.7502 192.503 66.7432 192.089L66.7151 192.068Z" fill="white"/>
<path d="M62.1551 192.089C62.1551 192.531 62.1551 192.966 62.1551 193.407V195.027C62.1509 195.099 62.1509 195.172 62.1551 195.244H62.9842V192.096H62.8858L62.1551 192.089Z" fill="white"/>
<path d="M60.7217 191.984C60.7217 192.454 60.7217 192.917 60.7217 193.386V195.013C60.7217 195.567 60.792 195.91 61.1081 196.121C61.2752 196.229 61.4709 196.285 61.6702 196.282H61.7335C62.0778 196.282 62.4361 196.282 62.7944 196.24C63.1528 196.198 63.4971 196.24 63.8554 196.282H63.9186C64.1179 196.285 64.3137 196.229 64.4807 196.121C64.7969 195.91 64.8602 195.567 64.8672 195.013V193.386C64.8672 192.924 64.8672 192.461 64.8672 191.984C64.8672 191.725 64.8672 191.031 64.024 191.024H62.956H62.5626H61.4946C60.7076 191.031 60.7217 191.725 60.7217 191.984ZM62.1269 192.054H62.8296H63.5322C63.5322 192.496 63.5322 192.931 63.5322 193.372V194.992C63.5363 195.064 63.5363 195.137 63.5322 195.209H63.0333H62.6399H62.2042C62.2001 195.137 62.2001 195.064 62.2042 194.992V193.372C62.1691 192.931 62.1621 192.496 62.1551 192.089L62.1269 192.054Z" fill="white"/>
<path d="M83.1704 194.754V183.046H81.7652H70.4811V180.795H60.1736V181.721H58.7684V178.98H57.3631V181.721H49.9435V178.98H48.5382V181.721H47.133V180.795H36.7974V183.046H25.5133H24.1081V194.754H22.8574V196.156H26.497V194.754H25.5133V187.231H36.7974V192.391H42.313C42.313 192.727 42.313 193.092 42.313 193.4C42.313 193.94 42.313 194.48 42.313 195.027C42.313 195.574 42.3903 195.924 42.7064 196.135C42.8735 196.243 43.0692 196.299 43.2685 196.296H43.3599C43.7042 196.296 44.0625 196.296 44.4208 196.254C44.7792 196.212 45.1235 196.254 45.4818 196.296H45.545C45.7443 196.299 45.9401 196.243 46.1071 196.135C46.4233 195.924 46.4866 195.581 46.4936 195.027V193.4C46.4936 193.064 46.4936 192.699 46.4936 192.391H47.0487V190.484H60.1736V192.391H70.453V187.182H81.7371V194.754H80.7253V196.156H84.393V194.754H83.1704ZM36.7974 185.78H25.5133V184.469H36.7974V185.78ZM45.0813 193.372V194.992C45.0854 195.064 45.0854 195.137 45.0813 195.209H44.6457H44.2522H43.8166C43.8166 195.153 43.8166 195.083 43.8166 194.992C43.8166 194.452 43.8166 193.912 43.8166 193.372C43.8166 193.036 43.8166 192.706 43.8166 192.37H45.1516C45.0883 192.706 45.0813 193.036 45.0813 193.372ZM45.6434 190.94H38.2308V182.219H45.6434V190.94ZM60.1736 189.033H47.0768V183.144H60.1736V189.033ZM69.0196 190.94H61.628V182.219H69.0196V190.94ZM70.4249 185.78V184.469H81.709V185.78H70.4249Z" fill="white"/>
<path d="M73.5165 169.193V163.584H72.1113L63.1458 163.627C60.9606 159.42 60.6234 159.42 60.2088 159.42H57.6232L30.7128 135.143L30.7549 135.094C31.043 134.743 31.7386 133.923 31.036 133.327C30.5301 132.899 30.0312 132.465 29.5324 132.03L28.0358 130.733C27.3332 130.123 26.6305 130.922 26.3214 131.266L24.5859 133.201L22.5202 135.479C21.7754 136.306 21.5365 136.741 21.5787 137.183C21.5866 137.301 21.6201 137.416 21.6771 137.519L23.3844 149.185L23.0753 151.288C22.6045 151.863 21.67 153.174 22.2462 154.148C22.4299 154.421 22.6848 154.638 22.9832 154.776C23.2817 154.915 23.6123 154.969 23.9395 154.933C24.3883 154.923 24.8352 154.871 25.2745 154.779L25.0005 153.377C24.5125 153.522 23.9963 153.546 23.4968 153.447C23.6567 152.945 23.9281 152.485 24.2908 152.101L24.4313 151.94L24.8107 149.325H24.8529V149.192L26.1317 140.457C26.3222 140.328 26.4988 140.18 26.6586 140.015L32.1813 144.831C31.851 145.189 31.5208 145.532 31.1976 145.918C30.7479 146.423 30.495 146.766 30.5441 147.18C30.5531 147.292 30.5852 147.401 30.6384 147.499C30.6916 147.598 30.7648 147.685 30.8533 147.755C31.1695 148.007 31.4786 148.259 31.7808 148.526C32.0829 148.792 32.385 149.059 32.6801 149.332C32.8309 149.477 33.0326 149.558 33.2422 149.556H33.2914C33.7059 149.556 33.994 149.248 34.4507 148.736C34.6053 148.54 34.7669 148.351 34.9285 148.161L41.9126 167.461L40.416 176.624H41.2802C43.0508 176.582 46.8169 176.547 49.6274 176.54H53.4637C55.4732 176.54 58.382 176.54 60.251 176.624H69.8067L65.9774 169.263L73.5165 169.193ZM24.1081 144.242L23.3352 138.991L23.4336 139.069C23.8692 139.447 24.2908 139.826 24.6983 140.211L24.1081 144.242ZM26.0263 138.543C25.8225 138.788 25.6679 138.949 25.5626 139.055C25.1761 138.697 24.7826 138.353 24.3751 137.989C23.9676 137.624 23.5531 137.288 23.1455 136.965C23.2369 136.846 23.3774 136.678 23.5882 136.433L25.6469 134.161C26.2371 133.516 26.8202 132.871 27.4034 132.219L27.4807 132.135L28.6049 133.11L29.7361 134.091L29.6659 134.182L28.0077 136.166C27.3519 136.961 26.6914 137.753 26.0263 138.543ZM34.5491 146.346L33.3265 147.811L33.2352 147.916C33.0595 147.755 32.8839 147.593 32.7012 147.439L32.1531 146.969L32.2445 146.871C32.659 146.402 33.0806 145.939 33.5022 145.469L34.4577 144.418L34.9496 144.845L35.4414 145.273L34.5491 146.346ZM36.8115 144.558C36.5024 144.298 36.2002 144.032 35.8911 143.759L34.9707 142.966C34.5491 142.595 34.0643 142.714 33.5233 143.317L33.1228 143.759L27.5721 138.921C28.092 138.311 28.6049 137.694 29.1108 137.078L29.8134 136.243L55.4872 159.378H49.8662L36.0035 146.836L36.671 146.037C37.1909 145.413 37.2401 144.915 36.8115 144.558ZM36.9661 149.647L47.7443 159.399H44.3085C42.9595 159.399 42.8681 160.906 42.84 161.671L42.3622 164.559L36.9661 149.647ZM60.265 175.159C58.4101 175.11 55.6277 175.082 53.6182 175.075H49.6063C47.1822 175.075 44.0485 175.117 42.0882 175.152L44.2593 161.832V161.748C44.263 161.429 44.3031 161.111 44.3788 160.801C46.1213 160.801 47.8919 160.801 49.5992 160.801H53.4356C55.2764 160.801 57.9745 160.801 59.8927 160.801C60.4618 161.6 62.1621 164.846 63.6025 167.812L67.4248 175.152C65.2818 175.166 60.8834 175.173 60.265 175.159ZM64.8883 167.174C64.5089 166.389 64.1857 165.688 63.8414 165.071H72.0831V167.805H65.2115L64.8883 167.174Z" fill="white"/>
</g>
<defs>
<clipPath id="clip0">
<rect width="216" height="215" fill="white" transform="translate(0.5)"/>
</clipPath>
</defs>
</svg>
